<?xml version="1.0" encoding="utf-8"?>
<!-- Generator: Adobe Illustrator 21.1.0, SVG Export Plug-In . SVG Version: 6.00 Build 0)  -->
<svg version="1.1" id="Layer_1" xmlns="http://www.w3.org/2000/svg" xmlns:xlink="http://www.w3.org/1999/xlink" x="0px" y="0px"
	 viewBox="0 0 244 80" style="enable-background:new 0 0 244 80;" xml:space="preserve">
<style type="text/css">
	.st0{fill:#1E2D58;}
	.st1{fill:#0099D9;}
	.st2{fill:#8BA3C7;}
	.st3{fill:#727171;}
</style>
<g>
	<path class="st0" d="M5.3,68C2.7,50.6,3.6,33.2,7.8,16.1c-1.3,0.2-2.5,0.5-3.8,0.7C9.2,28.7,18.4,37.4,30.9,41
		c1.3,0.4,4.5-1.5,2.3-2.2C21.4,35.4,12.8,27,7.8,15.8c-0.6-1.3-3.5-0.5-3.8,0.7C-0.3,33.8-1.1,51.4,1.5,69
		C1.7,70.4,5.6,69.5,5.3,68"/>
	<path class="st0" d="M5.4,58.7c2.7-6.5,8-8.2,14.2-10.3c2.6-0.9,0.2-1.6-1.4-1.1c-7,2.4-13.5,4.6-16.6,12C1.3,60.1,5,59.7,5.4,58.7
		"/>
	<path class="st0" d="M1.6,57.1c-1.5,3.7-1.1,7.5-0.3,11.3c0.2,0.9,3.6-0.1,3.8-0.8c0.7-3,1.1-6.1,2-9c1.7-5.2,6-7.5,10.8-9.5
		c5.7-2.4,10.6-5.2,15.2-9.3c0.9-0.8-2.7-0.4-3.5,0.2c-4.3,3.8-8.7,6.2-13.9,8.5c-2.7,1.2-5.5,2.3-7.8,4.1
		c-4.9,3.9-5.3,9.9-6.6,15.6c1.3-0.3,2.5-0.6,3.8-0.8c-0.8-3.7-1.2-7.3,0.2-11C5.7,55.7,2,56,1.6,57.1"/>
	<path class="st1" d="M93.2,17.1c1.3,6.9,0,13.7-5.1,18.9c-5.3,5.3-12.9,5.4-19.9,5.7c-11.5,0.6-22.8-0.8-34.1-3
		c-2-0.4-4.2,2.4-1.4,2.9c20.7,4,71.7,10.6,64.7-25.6C96.9,14.2,92.8,15.2,93.2,17.1"/>
	<path class="st2" d="M34.2,39c7.1-9.3,13.6-19.4,22.6-27C68.5,1.8,88.1-0.9,93.2,17.1c0.3,1,4.4-0.1,4.1-1.1
		C93.1,1.2,77.9-0.7,65.2,4.4c-15.5,6.2-25,22.2-34.7,34.8C29.6,40.3,33.6,39.8,34.2,39"/>
	<path class="st0" d="M8,76.9c0,2-1.6,3.6-3.6,3.6c-2,0-3.6-1.6-3.6-3.6c0-2,1.6-3.6,3.6-3.6C6.4,73.3,8,74.9,8,76.9"/>
</g>
<g>
	<path class="st3" d="M114.7,15.3H110l-1,2.9h-2l4.6-13h1.6l4.6,13h-2L114.7,15.3z M114.2,13.6l-1.8-5.7h0l-1.8,5.7H114.2z"/>
	<path class="st3" d="M120.5,5.3h1.8l3.6,8.4l3.5-8.4h1.8v13h-1.9v-8.1h0l-2.6,6.2H125l-2.6-6.2h0v8.1h-1.9V5.3z"/>
	<path class="st3" d="M135.4,5.3h8v1.8h-6.1v3.7h5.2v1.7h-5.2v3.8h6.1v1.8h-8V5.3z"/>
	<path class="st3" d="M146.6,5.3h4.4c1.7,0,3,0.7,3.8,2.2c0.3,0.5,0.5,1,0.6,1.5c0.1,0.5,0.1,1.5,0.1,2.8c0,1.4,0,2.4-0.1,2.9
		c0,0.3-0.1,0.5-0.2,0.7c-0.1,0.2-0.2,0.4-0.4,0.7c-0.4,0.6-0.9,1.1-1.5,1.5c-0.6,0.4-1.4,0.6-2.4,0.6h-4.3V5.3z M148.5,16.4h2.3
		c1.1,0,1.8-0.4,2.3-1.1c0.2-0.3,0.3-0.6,0.4-1.1c0.1-0.4,0.1-1.2,0.1-2.4c0-1.1,0-1.9-0.1-2.4c-0.1-0.5-0.2-0.9-0.5-1.2
		c-0.5-0.8-1.3-1.1-2.2-1.1h-2.3V16.4z"/>
	<path class="st3" d="M108.3,26.3h4.9c1.2,0,2.2,0.3,2.8,1c0.6,0.6,0.9,1.5,0.9,2.5c0,0.5-0.1,1-0.4,1.5c-0.1,0.2-0.3,0.5-0.6,0.7
		c-0.2,0.2-0.6,0.4-0.9,0.6v0c0.7,0.2,1.2,0.6,1.6,1.1c0.3,0.6,0.5,1.2,0.5,1.9c0,1.1-0.4,2-1,2.7c-0.7,0.7-1.5,1-2.5,1h-5.3V26.3z
		 M110.2,28v3.7h2.7c0.7,0,1.2-0.2,1.5-0.6c0.3-0.3,0.5-0.8,0.5-1.3s-0.2-1-0.5-1.3c-0.3-0.3-0.8-0.5-1.5-0.5H110.2z M110.2,33.5
		v3.9h2.9c0.7,0,1.2-0.2,1.6-0.6c0.3-0.4,0.5-0.8,0.5-1.4c0-0.5-0.2-1-0.5-1.4c-0.3-0.4-0.8-0.6-1.6-0.6H110.2z"/>
	<path class="st3" d="M120.5,26.3h1.9v13h-1.9V26.3z"/>
	<path class="st3" d="M125.8,32.8c0-1.5,0-2.5,0.1-3c0.1-0.5,0.2-0.9,0.4-1.2c0.3-0.6,0.8-1.1,1.5-1.6c0.7-0.5,1.5-0.7,2.5-0.7
		c1,0,1.8,0.3,2.5,0.7c0.7,0.5,1.1,1,1.4,1.6c0.2,0.3,0.4,0.7,0.4,1.2c0.1,0.5,0.1,1.5,0.1,3c0,1.5,0,2.5-0.1,3
		c-0.1,0.5-0.2,0.9-0.4,1.3c-0.3,0.6-0.8,1.1-1.4,1.6c-0.7,0.5-1.5,0.7-2.5,0.7c-1,0-1.8-0.3-2.5-0.7c-0.7-0.5-1.2-1-1.5-1.6
		c-0.1-0.2-0.2-0.4-0.2-0.6c-0.1-0.2-0.1-0.4-0.2-0.7C125.9,35.3,125.8,34.3,125.8,32.8z M127.7,32.8c0,1.3,0,2.1,0.1,2.6
		c0.1,0.5,0.2,0.8,0.5,1.1c0.2,0.3,0.5,0.5,0.8,0.7c0.3,0.2,0.7,0.3,1.2,0.3c0.5,0,0.8-0.1,1.2-0.3c0.3-0.2,0.6-0.4,0.8-0.7
		c0.2-0.3,0.4-0.6,0.5-1.1c0.1-0.5,0.1-1.3,0.1-2.6s0-2.1-0.1-2.6c-0.1-0.4-0.3-0.8-0.5-1.1c-0.2-0.3-0.4-0.5-0.8-0.7
		c-0.3-0.2-0.7-0.3-1.2-0.3c-0.4,0-0.8,0.1-1.2,0.3c-0.3,0.2-0.6,0.4-0.8,0.7c-0.2,0.3-0.4,0.6-0.5,1.1
		C127.8,30.6,127.7,31.5,127.7,32.8z"/>
	<path class="st3" d="M138.4,26.3h4.9c1.2,0,2.2,0.3,2.8,1c0.6,0.6,0.9,1.5,0.9,2.5c0,0.5-0.1,1-0.4,1.5c-0.1,0.2-0.3,0.5-0.6,0.7
		c-0.2,0.2-0.6,0.4-0.9,0.6v0c0.7,0.2,1.2,0.6,1.6,1.1c0.3,0.6,0.5,1.2,0.5,1.9c0,1.1-0.4,2-1,2.7c-0.7,0.7-1.5,1-2.5,1h-5.3V26.3z
		 M140.3,28v3.7h2.7c0.7,0,1.2-0.2,1.5-0.6c0.3-0.3,0.5-0.8,0.5-1.3s-0.2-1-0.5-1.3c-0.3-0.3-0.8-0.5-1.5-0.5H140.3z M140.3,33.5
		v3.9h2.9c0.7,0,1.2-0.2,1.6-0.6c0.3-0.4,0.5-0.8,0.5-1.4c0-0.5-0.2-1-0.5-1.4c-0.3-0.4-0.8-0.6-1.6-0.6H140.3z"/>
	<path class="st3" d="M157.1,36.4h-4.8l-1,2.9h-2l4.6-13h1.6l4.6,13h-2L157.1,36.4z M156.5,34.6l-1.8-5.7h0l-1.8,5.7H156.5z"/>
	<path class="st3" d="M162.8,26.3h1.8l5.7,9.2h0v-9.2h1.9v13h-1.8l-5.7-9.2h0v9.2h-1.9V26.3z"/>
	<path class="st3" d="M176.4,26.3h1.9V33h0l5.2-6.7h2.3l-4,5.1l4.4,7.8h-2.3l-3.4-6.3l-2.2,2.4v3.9h-1.9V26.3z"/>
	<path class="st3" d="M116.7,56.7c-0.3,1.2-0.8,2.1-1.6,2.8c-0.8,0.6-1.7,1-2.8,1c-1,0-1.8-0.3-2.5-0.7c-0.7-0.5-1.2-1-1.5-1.6
		c-0.1-0.2-0.2-0.4-0.2-0.6c-0.1-0.2-0.1-0.4-0.2-0.7c-0.1-0.5-0.1-1.5-0.1-3c0-1.5,0-2.5,0.1-3c0.1-0.5,0.2-0.9,0.4-1.2
		c0.3-0.6,0.8-1.1,1.5-1.6c0.7-0.5,1.5-0.7,2.5-0.7c1.2,0,2.2,0.4,3,1.1c0.8,0.7,1.2,1.6,1.4,2.7h-2c-0.2-0.5-0.4-1-0.8-1.3
		c-0.4-0.4-0.9-0.5-1.6-0.5c-0.4,0-0.8,0.1-1.2,0.3c-0.3,0.2-0.6,0.4-0.8,0.7c-0.2,0.3-0.4,0.6-0.5,1.1c-0.1,0.5-0.1,1.3-0.1,2.6
		c0,1.3,0,2.1,0.1,2.6c0.1,0.5,0.2,0.8,0.5,1.1c0.2,0.3,0.5,0.5,0.8,0.7c0.3,0.2,0.7,0.3,1.2,0.3c1.1,0,1.9-0.6,2.4-1.8H116.7z"/>
	<path class="st3" d="M119.5,47.3h4.9c1,0,1.9,0.3,2.6,0.9c0.8,0.6,1.2,1.6,1.2,2.8c0,1.8-0.8,3-2.4,3.6l2.9,5.8h-2.3l-2.6-5.5h-2.4
		v5.5h-1.9V47.3z M121.4,53h2.9c0.7,0,1.2-0.2,1.6-0.6c0.4-0.4,0.5-0.9,0.5-1.4c0-0.7-0.2-1.2-0.6-1.5c-0.3-0.3-0.8-0.4-1.4-0.4h-3
		V53z"/>
	<path class="st3" d="M131.3,53.8c0-1.5,0-2.5,0.1-3c0.1-0.5,0.2-0.9,0.4-1.2c0.3-0.6,0.8-1.1,1.5-1.6c0.7-0.5,1.5-0.7,2.5-0.7
		c1,0,1.8,0.3,2.5,0.7c0.7,0.5,1.1,1,1.4,1.6c0.2,0.3,0.4,0.7,0.4,1.2c0.1,0.5,0.1,1.5,0.1,3c0,1.5,0,2.5-0.1,3
		c-0.1,0.5-0.2,0.9-0.4,1.3c-0.3,0.6-0.8,1.1-1.4,1.6c-0.7,0.5-1.5,0.7-2.5,0.7c-1,0-1.8-0.3-2.5-0.7c-0.7-0.5-1.2-1-1.5-1.6
		c-0.1-0.2-0.2-0.4-0.2-0.6c-0.1-0.2-0.1-0.4-0.2-0.7C131.3,56.3,131.3,55.3,131.3,53.8z M133.2,53.8c0,1.3,0,2.1,0.1,2.6
		c0.1,0.5,0.2,0.8,0.5,1.1c0.2,0.3,0.5,0.5,0.8,0.7c0.3,0.2,0.7,0.3,1.2,0.3c0.5,0,0.8-0.1,1.2-0.3c0.3-0.2,0.6-0.4,0.8-0.7
		c0.2-0.3,0.4-0.6,0.5-1.1c0.1-0.5,0.1-1.3,0.1-2.6c0-1.3,0-2.1-0.1-2.6c-0.1-0.4-0.3-0.8-0.5-1.1c-0.2-0.3-0.4-0.5-0.8-0.7
		c-0.3-0.2-0.7-0.3-1.2-0.3c-0.4,0-0.8,0.1-1.2,0.3c-0.3,0.2-0.6,0.4-0.8,0.7c-0.2,0.3-0.4,0.6-0.5,1.1
		C133.2,51.7,133.2,52.5,133.2,53.8z"/>
	<path class="st3" d="M144,57.2c1,0.8,2.2,1.3,3.6,1.3c1.6,0,2.5-0.6,2.5-1.8c0-1-0.5-1.5-1.6-1.7c-0.5-0.1-1.1-0.2-1.7-0.2
		c-1.1-0.2-1.9-0.6-2.5-1.2c-0.6-0.7-0.9-1.5-0.9-2.4c0-1.1,0.4-2,1.1-2.7c0.7-0.7,1.7-1,3-1c1.6,0,2.9,0.5,4.1,1.3l-1.1,1.6
		c-0.9-0.6-2-1-3.1-1c-0.6,0-1.1,0.2-1.5,0.5c-0.4,0.3-0.6,0.8-0.6,1.4c0,0.4,0.1,0.7,0.4,1c0.3,0.3,0.7,0.5,1.4,0.6
		c0.3,0.1,0.8,0.1,1.4,0.2c1.2,0.2,2,0.6,2.6,1.3c0.6,0.7,0.8,1.5,0.8,2.4c-0.1,2.5-1.5,3.7-4.4,3.8c-1.9,0-3.5-0.6-4.8-1.8
		L144,57.2z"/>
	<path class="st3" d="M155.6,57.2c1,0.8,2.2,1.3,3.6,1.3c1.6,0,2.5-0.6,2.5-1.8c0-1-0.5-1.5-1.6-1.7c-0.5-0.1-1.1-0.2-1.7-0.2
		c-1.1-0.2-1.9-0.6-2.5-1.2c-0.6-0.7-0.9-1.5-0.9-2.4c0-1.1,0.4-2,1.1-2.7c0.7-0.7,1.7-1,3-1c1.6,0,2.9,0.5,4.1,1.3l-1.1,1.6
		c-0.9-0.6-2-1-3.1-1c-0.6,0-1.1,0.2-1.5,0.5c-0.4,0.3-0.6,0.8-0.6,1.4c0,0.4,0.1,0.7,0.4,1c0.3,0.3,0.7,0.5,1.4,0.6
		c0.3,0.1,0.8,0.1,1.4,0.2c1.2,0.2,2,0.6,2.6,1.3c0.6,0.7,0.8,1.5,0.8,2.4c-0.1,2.5-1.5,3.7-4.4,3.8c-1.9,0-3.5-0.6-4.8-1.8
		L155.6,57.2z"/>
	<path class="st3" d="M165.8,52.3h5.3v1.8h-5.3V52.3z"/>
	<path class="st3" d="M174.1,57.2c1,0.8,2.2,1.3,3.6,1.3c1.6,0,2.5-0.6,2.5-1.8c0-1-0.5-1.5-1.6-1.7c-0.5-0.1-1.1-0.2-1.7-0.2
		c-1.1-0.2-1.9-0.6-2.5-1.2c-0.6-0.7-0.9-1.5-0.9-2.4c0-1.1,0.4-2,1.1-2.7c0.7-0.7,1.7-1,3-1c1.6,0,2.9,0.5,4.1,1.3l-1.1,1.6
		c-0.9-0.6-2-1-3.1-1c-0.6,0-1.1,0.2-1.5,0.5c-0.4,0.3-0.6,0.8-0.6,1.4c0,0.4,0.1,0.7,0.4,1c0.3,0.3,0.7,0.5,1.4,0.6
		c0.3,0.1,0.8,0.1,1.4,0.2c1.2,0.2,2,0.6,2.6,1.3c0.6,0.7,0.8,1.5,0.8,2.4c-0.1,2.5-1.5,3.7-4.4,3.8c-1.9,0-3.5-0.6-4.8-1.8
		L174.1,57.2z"/>
	<path class="st3" d="M185.5,47.3h8v1.8h-6.1v3.7h5.2v1.7h-5.2v3.8h6.1v1.8h-8V47.3z"/>
	<path class="st3" d="M203.2,57.4h-4.8l-1,2.9h-2l4.6-13h1.6l4.6,13h-2L203.2,57.4z M202.6,55.7l-1.8-5.7h0l-1.8,5.7H202.6z"/>
	<path class="st3" d="M208.9,47.3h4.9c1,0,1.9,0.3,2.6,0.9c0.8,0.6,1.2,1.6,1.2,2.8c0,1.8-0.8,3-2.4,3.6l2.9,5.8h-2.3l-2.6-5.5h-2.4
		v5.5h-1.9V47.3z M210.8,53h2.9c0.7,0,1.2-0.2,1.6-0.6c0.4-0.4,0.5-0.9,0.5-1.4c0-0.7-0.2-1.2-0.6-1.5c-0.3-0.3-0.8-0.4-1.4-0.4h-3
		V53z"/>
	<path class="st3" d="M229.6,56.7c-0.3,1.2-0.8,2.1-1.6,2.8c-0.8,0.6-1.7,1-2.8,1c-1,0-1.8-0.3-2.5-0.7c-0.7-0.5-1.2-1-1.5-1.6
		c-0.1-0.2-0.2-0.4-0.2-0.6c-0.1-0.2-0.1-0.4-0.2-0.7c-0.1-0.5-0.1-1.5-0.1-3c0-1.5,0-2.5,0.1-3c0.1-0.5,0.2-0.9,0.4-1.2
		c0.3-0.6,0.8-1.1,1.5-1.6c0.7-0.5,1.5-0.7,2.5-0.7c1.2,0,2.2,0.4,3,1.1c0.8,0.7,1.2,1.6,1.4,2.7h-2c-0.2-0.5-0.4-1-0.8-1.3
		c-0.4-0.4-0.9-0.5-1.6-0.5c-0.4,0-0.8,0.1-1.2,0.3c-0.3,0.2-0.6,0.4-0.8,0.7c-0.2,0.3-0.4,0.6-0.5,1.1c-0.1,0.5-0.1,1.3-0.1,2.6
		c0,1.3,0,2.1,0.1,2.6c0.1,0.5,0.2,0.8,0.5,1.1c0.2,0.3,0.5,0.5,0.8,0.7c0.3,0.2,0.7,0.3,1.2,0.3c1.1,0,1.9-0.6,2.4-1.8H229.6z"/>
	<path class="st3" d="M239.2,54.6h-5v5.7h-1.9v-13h1.9v5.6h5v-5.6h1.9v13h-1.9V54.6z"/>
</g>
</svg>
