<?xml version="1.0" encoding="utf-8"?>
<!-- Generator: Adobe Illustrator 22.0.1, SVG Export Plug-In . SVG Version: 6.00 Build 0)  -->
<svg version="1.1" id="レイヤー_1" xmlns="http://www.w3.org/2000/svg" xmlns:xlink="http://www.w3.org/1999/xlink" x="0px"
	 y="0px" viewBox="0 0 244 80" style="enable-background:new 0 0 244 80;" xml:space="preserve">
<style type="text/css">
	.st0{fill:#0099D9;}
	.st1{fill:#8BA3C7;}
	.st2{fill:#1E2D58;}
	.st3{fill:#717071;}
</style>
<g>
	<g>
		<path class="st0" d="M97.7,15.2c-0.4-1.9-4.5-0.8-4.1,1.1c1.3,6.4,0.4,13.1-4.3,17.8c-5.3,5.4-11.9,6.1-18.8,6.5
			c-11.9,0.8-24.5-0.5-36.2-2.8c-0.1,0.1-0.1,0.1-0.2,0.2c-0.1,0.1-0.1,0.1-0.2,0.2c-0.5,0.5-1.4,1.4-2.1,1.9c0,0,0,0,0,0
			c6.8,1.6,32.5,6.6,48,3.6C95.5,40.7,100.3,28,97.7,15.2z"/>
		<path class="st1" d="M59.3,9.6c11.4-9.3,29.8-10.1,34.4,6.7c-0.4-1.9,3.7-2.9,4.1-1.1c-2-7.3-7-12.5-14.4-14.4
			c-7.9-2-13.9,0-20.1,2.8C56.8,6.5,48.5,14.3,40.6,25c-4.5,6.1-8,9.9-9.9,11.9c1,0.3,3.6,0.9,3.6,0.9C42.5,28,49.9,17.3,59.3,9.6z"
			/>
		<path class="st2" d="M7.2,75.8c0,2-1.6,3.6-3.5,3.6s-3.5-1.6-3.5-3.6c0-2,1.6-3.6,3.5-3.6S7.2,73.8,7.2,75.8z M33.9,38.2
			c-0.2,0.1-0.6,0.3-1,0.5C33.3,38.5,33.6,38.4,33.9,38.2c-0.6,0.6-1.5,1.5-2.1,2c0,0,0,0,0,0c-0.2,0.2-1.1,0.9-1.6,1.3
			c-3,2.2-6.2,3.8-9.5,5.4c-1,0.6-5,2.1-6.5,3.1c-3,1.4-5.5,3.9-6.8,7.4c-0.9,2.6-1,3.6-1.6,6.2c0,0.2-0.4,2.3-0.4,2.7
			c0.1,1.2-2.4,2.5-3.6,1.9c-0.8-0.4-1.2-8.5-1.2-8.9C-0.8,44.6,0.3,30.1,4,15.7c0.3-1.2,3.2-2.1,3.8-0.7
			c4.5,10.4,12,18.6,22.6,21.8c0.1,0,0.1,0,0.2,0.1c1,0.3,3.6,0.9,3.6,0.9S34.1,38,33.9,38.2z M28,39.3C18.7,36.4,12.3,30.2,7.2,22
			c-0.2-0.3-0.8-0.3-0.9,0.1c-2,10.4-2.8,21.4-2.3,32c3.2-4.4,9.1-6.5,14.2-8.4c0.5-0.2,2.7-1.2,3.3-1.6C24.1,42.8,26.1,41,28,39.3z
			"/>
	</g>
	<g>
		<path class="st3" d="M117.1,20.3l-0.9-2.7h-5.4l-0.9,2.7h-2.2l5-13.6h1.7l5,13.6H117.1z M113.5,9.8l-2.1,6h4.2L113.5,9.8z"/>
		<path class="st3" d="M131.3,20.3v-9.1l-3.1,6.6h-1.5l-3.2-6.6v9.1h-2.1V6.7h2.1l4,8.5l3.9-8.5h2.1v13.6H131.3z"/>
		<path class="st3" d="M136.7,20.3V6.7h8.7v1.9h-6.6v4h5.7v1.8h-5.7v4.1h6.6v1.9H136.7z"/>
		<path class="st3" d="M156.3,19c-0.9,0.9-2.1,1.3-3.5,1.3H148V6.7h4.8c1.4,0,2.7,0.4,3.5,1.3c1.5,1.5,1.4,3.5,1.4,5.4
			S157.8,17.6,156.3,19z M154.9,9.5c-0.6-0.6-1.3-0.9-2.3-0.9h-2.5v9.9h2.5c1,0,1.7-0.3,2.3-0.9c0.7-0.8,0.7-2.3,0.7-4.1
			S155.6,10.3,154.9,9.5z"/>
		<path class="st3" d="M114.8,41.2h-5.5V27.6h5.3c2.5,0,4.1,1.4,4.1,3.7c0,1.5-0.9,2.5-1.8,2.9c1.1,0.4,2,1.4,2,3.2
			C118.9,39.9,117.2,41.2,114.8,41.2z M114.4,29.5h-3.1v3.9h3.1c1.3,0,2.2-0.7,2.2-1.9C116.6,30.2,115.7,29.5,114.4,29.5z
			 M114.6,35.2h-3.2v4.1h3.2c1.4,0,2.2-0.9,2.2-2.1C116.8,36.1,116,35.2,114.6,35.2z"/>
		<path class="st3" d="M121.3,41.2V27.6h2.1v13.6H121.3z"/>
		<path class="st3" d="M134.8,39.9c-0.9,0.9-2.1,1.5-3.6,1.5c-1.5,0-2.6-0.5-3.6-1.5c-1.3-1.3-1.3-2.8-1.3-5.5s0-4.1,1.3-5.5
			c0.9-0.9,2.1-1.5,3.6-1.5c1.5,0,2.7,0.5,3.6,1.5c1.3,1.3,1.3,2.8,1.3,5.5S136.1,38.5,134.8,39.9z M133.2,30.2
			c-0.5-0.5-1.2-0.8-2-0.8c-0.8,0-1.5,0.3-2,0.8c-0.7,0.7-0.8,1.5-0.8,4.2c0,2.7,0.1,3.5,0.8,4.2c0.5,0.5,1.2,0.8,2,0.8
			c0.8,0,1.5-0.3,2-0.8c0.7-0.7,0.8-1.5,0.8-4.2C134,31.7,133.9,30.9,133.2,30.2z"/>
		<path class="st3" d="M144.1,41.2h-5.5V27.6h5.3c2.5,0,4.1,1.4,4.1,3.7c0,1.5-0.9,2.5-1.8,2.9c1.1,0.4,2,1.4,2,3.2
			C148.2,39.9,146.5,41.2,144.1,41.2z M143.7,29.5h-3.1v3.9h3.1c1.3,0,2.2-0.7,2.2-1.9C145.9,30.2,145.1,29.5,143.7,29.5z
			 M143.9,35.2h-3.2v4.1h3.2c1.4,0,2.2-0.9,2.2-2.1C146.2,36.1,145.4,35.2,143.9,35.2z"/>
		<path class="st3" d="M159.1,41.2l-0.9-2.7h-5.4l-0.9,2.7h-2.2l5-13.6h1.7l5,13.6H159.1z M155.5,30.7l-2.1,6h4.2L155.5,30.7z"/>
		<path class="st3" d="M171,41.2l-6.3-9.6v9.6h-2.1V27.6h1.9l6.3,9.6v-9.6h2.1v13.6H171z"/>
		<path class="st3" d="M184.4,41.2l-3.8-6.7l-2.3,2.8v4h-2.1V27.6h2.1v6.8l5.6-6.8h2.5l-4.4,5.3l4.9,8.3H184.4z"/>
		<path class="st3" d="M113.6,62.2c-1.4,0-2.6-0.5-3.6-1.5c-1.3-1.3-1.3-2.8-1.3-5.5s0-4.1,1.3-5.5c0.9-0.9,2.2-1.5,3.6-1.5
			c2.5,0,4.4,1.5,4.9,4.2h-2.1c-0.3-1.4-1.2-2.3-2.8-2.3c-0.8,0-1.5,0.3-2,0.8c-0.7,0.7-0.8,1.5-0.8,4.2c0,2.7,0.2,3.5,0.8,4.2
			c0.5,0.5,1.2,0.8,2,0.8c1.5,0,2.4-1,2.8-2.3h2.1C118,60.8,116.1,62.2,113.6,62.2z"/>
		<path class="st3" d="M128.6,62.1l-2.9-5.7h-2.6v5.7H121V48.5h5.3c2.6,0,4.2,1.7,4.2,4c0,1.9-1.2,3.2-2.7,3.6l3.1,6H128.6z
			 M126.2,50.4h-3.1v4.3h3.1c1.4,0,2.3-0.8,2.3-2.1S127.5,50.4,126.2,50.4z"/>
		<path class="st3" d="M140.7,60.8c-0.9,0.9-2.1,1.5-3.6,1.5c-1.5,0-2.6-0.5-3.6-1.5c-1.3-1.3-1.3-2.8-1.3-5.5s0-4.1,1.3-5.5
			c0.9-0.9,2.1-1.5,3.6-1.5c1.5,0,2.7,0.5,3.6,1.5c1.3,1.3,1.3,2.8,1.3,5.5S142,59.4,140.7,60.8z M139.1,51.1
			c-0.5-0.5-1.2-0.8-2-0.8c-0.8,0-1.5,0.3-2,0.8c-0.7,0.7-0.8,1.5-0.8,4.2c0,2.7,0.1,3.5,0.8,4.2c0.5,0.5,1.2,0.8,2,0.8
			c0.8,0,1.5-0.3,2-0.8c0.7-0.7,0.8-1.5,0.8-4.2C139.9,52.6,139.8,51.8,139.1,51.1z"/>
		<path class="st3" d="M148.6,62.2c-2,0-3.5-0.5-4.8-1.8l1.4-1.4c1,1,2.1,1.3,3.5,1.3c1.8,0,2.8-0.8,2.8-2.1c0-0.6-0.2-1.1-0.5-1.4
			c-0.3-0.3-0.7-0.5-1.5-0.6l-1.6-0.2c-1.1-0.2-2-0.5-2.6-1.1c-0.7-0.6-1-1.5-1-2.6c0-2.4,1.7-4,4.5-4c1.8,0,3.1,0.5,4.2,1.5
			l-1.3,1.3c-0.8-0.8-1.8-1.1-3-1.1c-1.6,0-2.5,0.9-2.5,2.1c0,0.5,0.2,0.9,0.5,1.3c0.3,0.3,0.9,0.5,1.5,0.6l1.5,0.2
			c1.3,0.2,2,0.5,2.5,1c0.7,0.6,1.1,1.6,1.1,2.8C153.5,60.7,151.5,62.2,148.6,62.2z"/>
		<path class="st3" d="M159.7,62.2c-2,0-3.5-0.5-4.8-1.8l1.4-1.4c1,1,2.1,1.3,3.5,1.3c1.8,0,2.8-0.8,2.8-2.1c0-0.6-0.2-1.1-0.5-1.4
			c-0.3-0.3-0.7-0.5-1.5-0.6l-1.6-0.2c-1.1-0.2-2-0.5-2.6-1.1c-0.7-0.6-1-1.5-1-2.6c0-2.4,1.7-4,4.5-4c1.8,0,3.1,0.5,4.2,1.5
			l-1.3,1.3c-0.8-0.8-1.8-1.1-3-1.1c-1.6,0-2.5,0.9-2.5,2.1c0,0.5,0.2,0.9,0.5,1.3c0.3,0.3,0.9,0.5,1.5,0.6l1.5,0.2
			c1.3,0.2,2,0.5,2.5,1c0.7,0.6,1.1,1.6,1.1,2.8C164.6,60.7,162.5,62.2,159.7,62.2z"/>
		<path class="st3" d="M166.1,55.9v-1.8h5.6v1.8H166.1z"/>
		<path class="st3" d="M178.7,62.2c-2,0-3.5-0.5-4.8-1.8l1.4-1.4c1,1,2.1,1.3,3.5,1.3c1.8,0,2.8-0.8,2.8-2.1c0-0.6-0.2-1.1-0.5-1.4
			c-0.3-0.3-0.7-0.5-1.5-0.6l-1.6-0.2c-1.1-0.2-2-0.5-2.6-1.1c-0.7-0.6-1-1.5-1-2.6c0-2.4,1.7-4,4.5-4c1.8,0,3.1,0.5,4.2,1.5
			l-1.3,1.3c-0.8-0.8-1.8-1.1-3-1.1c-1.6,0-2.5,0.9-2.5,2.1c0,0.5,0.2,0.9,0.5,1.3c0.3,0.3,0.9,0.5,1.5,0.6l1.5,0.2
			c1.3,0.2,2,0.5,2.5,1c0.7,0.6,1.1,1.6,1.1,2.8C183.6,60.7,181.6,62.2,178.7,62.2z"/>
		<path class="st3" d="M185.8,62.1V48.5h8.7v1.9h-6.6v4h5.7v1.8h-5.7v4.1h6.6v1.9H185.8z"/>
		<path class="st3" d="M205.7,62.1l-0.9-2.7h-5.4l-0.9,2.7h-2.2l5-13.6h1.7l5,13.6H205.7z M202.1,51.6l-2.1,6h4.2L202.1,51.6z"/>
		<path class="st3" d="M217.5,62.1l-2.9-5.7h-2.6v5.7H210V48.5h5.3c2.6,0,4.2,1.7,4.2,4c0,1.9-1.2,3.2-2.7,3.6l3.1,6H217.5z
			 M215.1,50.4h-3.1v4.3h3.1c1.4,0,2.3-0.8,2.3-2.1S216.5,50.4,215.1,50.4z"/>
		<path class="st3" d="M226.8,62.2c-1.4,0-2.6-0.5-3.6-1.5c-1.3-1.3-1.3-2.8-1.3-5.5s0-4.1,1.3-5.5c0.9-0.9,2.2-1.5,3.6-1.5
			c2.5,0,4.4,1.5,4.9,4.2h-2.1c-0.3-1.4-1.2-2.3-2.8-2.3c-0.8,0-1.5,0.3-2,0.8c-0.7,0.7-0.8,1.5-0.8,4.2c0,2.7,0.2,3.5,0.8,4.2
			c0.5,0.5,1.2,0.8,2,0.8c1.5,0,2.4-1,2.8-2.3h2.1C231.2,60.8,229.3,62.2,226.8,62.2z"/>
		<path class="st3" d="M241.8,62.1v-5.9h-5.5v5.9h-2.1V48.5h2.1v5.8h5.5v-5.8h2.1v13.6H241.8z"/>
	</g>
	<g>
		<path class="st1" d="M111.3,76.8h-1.7v2.9h-1.1v-7.4h2.8c1.5,0,2.4,1,2.4,2.3C113.6,75.8,112.7,76.8,111.3,76.8z M111.2,73.3h-1.6
			v2.5h1.6c0.8,0,1.3-0.4,1.3-1.2C112.5,73.7,112,73.3,111.2,73.3z"/>
		<path class="st1" d="M119.1,79.7l-1.6-3.1h-1.4v3.1H115v-7.4h2.9c1.4,0,2.3,0.9,2.3,2.2c0,1.1-0.6,1.7-1.5,2l1.7,3.3H119.1z
			 M117.8,73.3h-1.7v2.3h1.7c0.8,0,1.3-0.4,1.3-1.2C119.1,73.7,118.6,73.3,117.8,73.3z"/>
		<path class="st1" d="M126.2,79c-0.5,0.5-1.2,0.8-2,0.8c-0.8,0-1.4-0.3-2-0.8c-0.7-0.7-0.7-1.6-0.7-3c0-1.4,0-2.3,0.7-3
			c0.5-0.5,1.2-0.8,2-0.8c0.8,0,1.5,0.3,2,0.8c0.7,0.7,0.7,1.6,0.7,3C126.9,77.4,126.9,78.2,126.2,79z M125.4,73.7
			c-0.3-0.3-0.7-0.5-1.1-0.5c-0.4,0-0.8,0.2-1.1,0.5c-0.4,0.4-0.4,0.8-0.4,2.3c0,1.5,0.1,1.9,0.4,2.3c0.3,0.3,0.7,0.5,1.1,0.5
			c0.4,0,0.8-0.2,1.1-0.5c0.4-0.4,0.4-0.8,0.4-2.3C125.8,74.5,125.7,74.1,125.4,73.7z"/>
		<path class="st1" d="M131.1,73.3v6.4H130v-6.4h-2v-1h5.2v1H131.1z"/>
		<path class="st1" d="M138.8,79c-0.5,0.5-1.2,0.8-2,0.8c-0.8,0-1.4-0.3-2-0.8c-0.7-0.7-0.7-1.6-0.7-3c0-1.4,0-2.3,0.7-3
			c0.5-0.5,1.2-0.8,2-0.8c0.8,0,1.5,0.3,2,0.8c0.7,0.7,0.7,1.6,0.7,3C139.5,77.4,139.5,78.2,138.8,79z M138,73.7
			c-0.3-0.3-0.7-0.5-1.1-0.5c-0.4,0-0.8,0.2-1.1,0.5c-0.4,0.4-0.4,0.8-0.4,2.3c0,1.5,0.1,1.9,0.4,2.3c0.3,0.3,0.7,0.5,1.1,0.5
			c0.4,0,0.8-0.2,1.1-0.5c0.4-0.4,0.4-0.8,0.4-2.3C138.4,74.5,138.3,74.1,138,73.7z"/>
		<path class="st1" d="M143.7,73.3v6.4h-1.1v-6.4h-2v-1h5.2v1H143.7z"/>
		<path class="st1" d="M150,76.6v3.1h-1.1v-3.1l-2.2-4.4h1.2l1.6,3.3l1.6-3.3h1.2L150,76.6z"/>
		<path class="st1" d="M156.2,76.8h-1.7v2.9h-1.1v-7.4h2.8c1.5,0,2.4,1,2.4,2.3C158.6,75.8,157.7,76.8,156.2,76.8z M156.1,73.3h-1.6
			v2.5h1.6c0.8,0,1.3-0.4,1.3-1.2C157.5,73.7,156.9,73.3,156.1,73.3z"/>
		<path class="st1" d="M160,79.7v-7.4h4.8v1h-3.6v2.2h3.1v1h-3.1v2.2h3.6v1H160z"/>
	</g>
</g>
</svg>
