<?xml version="1.0" encoding="utf-8"?>
<!-- Generator: Adobe Illustrator 21.1.0, SVG Export Plug-In . SVG Version: 6.00 Build 0)  -->
<svg version="1.1" id="Layer_1" xmlns="http://www.w3.org/2000/svg" xmlns:xlink="http://www.w3.org/1999/xlink" x="0px" y="0px"
	 viewBox="0 0 6.9 9.4" style="enable-background:new 0 0 6.9 9.4;" xml:space="preserve">
<style type="text/css">
	.st0{fill:#1CA1AD;}
	.st1{opacity:0.25;fill:#187B84;enable-background:new    ;}
</style>
<title>arrow_none</title>
<path class="st0" d="M6.9,3.4c0,0.2-0.2,0.4-0.4,0.4h-6C0.2,3.9,0,3.7,0,3.4c0-0.1,0-0.2,0.1-0.3l3-3C3.3,0,3.6,0,3.7,0.1
	c0,0,0,0,0,0l3,3C6.8,3.2,6.9,3.3,6.9,3.4z"/>
<path class="st1" d="M6.7,5.7c0.2,0.2,0.2,0.4,0,0.6c0,0,0,0,0,0l-3,3c-0.2,0.2-0.4,0.2-0.6,0c0,0,0,0,0,0l-3-3C0,6.1,0,5.9,0.2,5.7
	c0.1-0.1,0.2-0.1,0.3-0.1h6C6.5,5.6,6.7,5.6,6.7,5.7z"/>
</svg>
