<svg id="Layer_1" data-name="Layer 1" xmlns="http://www.w3.org/2000/svg" viewBox="0 0 70 70"><defs><style>.cls-1{fill:#69b4e4;}.cls-2{fill:#fff;}</style></defs><title>icon_profile_man</title><circle class="cls-1" cx="35" cy="35" r="35"/><path class="cls-2" d="M35,22.62a5.7,5.7,0,1,1,5.7-5.7A5.71,5.71,0,0,1,35,22.62Zm0-10a4.34,4.34,0,1,0,4.34,4.34A4.35,4.35,0,0,0,35,12.58Z"/><path class="cls-2" d="M44.72,43.54H43.36V26a1.39,1.39,0,0,0-1.45-1.33H28.09A1.39,1.39,0,0,0,26.64,26V43.54H25.28V26a2.75,2.75,0,0,1,2.81-2.69H41.91A2.75,2.75,0,0,1,44.72,26Z"/><path class="cls-2" d="M38.84,58.78H31.16c-1,0-1.86-1.11-1.86-2.54V39.52h1.36V56.24c0,.76.36,1.18.5,1.18h7.68c.15,0,.5-.41.5-1.18V39.52H40.7V56.24C40.7,57.66,39.88,58.78,38.84,58.78Z"/><rect class="cls-2" x="34.32" y="42.53" width="1.36" height="15.32"/></svg>