<?xml version="1.0" encoding="utf-8"?>
<!-- Generator: Adobe Illustrator 21.1.0, SVG Export Plug-In . SVG Version: 6.00 Build 0)  -->
<svg version="1.1" id="Layer_1" xmlns="http://www.w3.org/2000/svg" xmlns:xlink="http://www.w3.org/1999/xlink" x="0px" y="0px"
	 viewBox="0 0 14 14" style="enable-background:new 0 0 14 14;" xml:space="preserve">
<style type="text/css">
	.st0{fill:#1AA2AE;}
</style>
<path class="st0" d="M7,13.5c-3.6,0-6.5-2.9-6.5-6.5S3.4,0.5,7,0.5s6.5,2.9,6.5,6.5S10.6,13.5,7,13.5z M7,1.5C4,1.5,1.5,4,1.5,7
	c0,3,2.5,5.5,5.5,5.5c3,0,5.5-2.5,5.5-5.5C12.5,4,10,1.5,7,1.5z M10.5,6.5h-7v1h7V6.5z M7.5,3.5h-1v7h1V3.5z"/>
</svg>
