<?xml version="1.0" encoding="utf-8"?>
<!-- Generator: Adobe Illustrator 21.1.0, SVG Export Plug-In . SVG Version: 6.00 Build 0)  -->
<svg version="1.1" id="Layer_1" xmlns="http://www.w3.org/2000/svg" xmlns:xlink="http://www.w3.org/1999/xlink" x="0px" y="0px"
	 viewBox="0 0 579.2 516.7" style="enable-background:new 0 0 579.2 516.7;" xml:space="preserve">
<style type="text/css">
	.st0{fill:#DEE5E1;}
	.st1{fill:#EE6448;}
	.st2{fill:#E0AE40;}
	.st3{fill:#76C8A9;}
	.st4{fill:#88BB40;}
	.st5{fill:#ED9C87;}
	.st6{fill:#8D73AD;}
	.st7{fill:none;stroke:#187B84;stroke-miterlimit:10;}
	.st8{fill:#187B84;}
	.st9{font-family:'HiraginoSansPr6N-W6';}
	.st10{font-size:14px;}
	.st11{letter-spacing:-7;}
	.st12{font-family:'HelveticaLTStd-BoldCond';}
	.st13{font-size:20px;}
	.st14{fill:#8EA9AB;}
	.st15{fill:none;stroke:#FFFFFF;stroke-miterlimit:10;}
	.st16{fill:none;stroke:#76C8A9;stroke-miterlimit:10;}
	.st17{fill:none;stroke:#8D73AD;stroke-miterlimit:10;}
</style>
<rect x="8.6" y="441.6" class="st0" width="60" height="25"/>
<rect x="8.6" y="46.6" class="st1" width="60" height="77"/>
<rect x="8.6" y="124.6" class="st1" width="60" height="51"/>
<rect x="8.6" y="176.6" class="st1" width="60" height="23"/>
<rect x="8.6" y="200.6" class="st1" width="60" height="23"/>
<rect x="8.6" y="224.6" class="st1" width="60" height="23"/>
<rect x="8.6" y="248.6" class="st1" width="60" height="21"/>
<rect x="8.6" y="270.6" class="st1" width="60" height="21"/>
<rect x="8.6" y="292.6" class="st2" width="60" height="21"/>
<rect x="8.6" y="314.6" class="st2" width="60" height="17"/>
<rect x="8.6" y="332.6" class="st3" width="60" height="17"/>
<rect x="8.6" y="350.6" class="st3" width="60" height="17"/>
<rect x="8.6" y="368.6" class="st3" width="60" height="14"/>
<rect x="8.6" y="383.6" class="st3" width="60" height="11"/>
<rect x="8.6" y="395.6" class="st4" width="60" height="9"/>
<rect x="8.6" y="405.6" class="st4" width="60" height="9"/>
<rect x="8.6" y="415.6" class="st5" width="60" height="8"/>
<rect x="8.6" y="424.6" class="st5" width="60" height="5"/>
<rect x="8.6" y="430.6" class="st5" width="60" height="2"/>
<rect x="8.6" y="433.6" class="st5" width="60" height="2"/>
<rect x="8.6" y="436.6" class="st6" width="60" height="2"/>
<rect x="8.6" y="439.6" class="st6" width="60" height="1"/>
<line class="st7" x1="71.6" y1="47.1" x2="570.1" y2="47.1"/>
<g>
	<text transform="matrix(1 0 0 1 303.9409 62.3192)"><tspan x="0" y="0" class="st8 st9 st10">全血</tspan><tspan x="0" y="20" class="st8 st9 st10">血漿</tspan><tspan x="0" y="40" class="st8 st9 st10">血清</tspan><tspan x="0" y="60" class="st8 st9 st10">赤血球</tspan><tspan x="0" y="80" class="st8 st9 st10">臍帯血</tspan><tspan x="0" y="100" class="st8 st9 st10">PBMC</tspan><tspan x="0" y="120" class="st8 st9 st10">バフィーコート</tspan><tspan x="0" y="140" class="st8 st9 st10">尿</tspan><tspan x="0" y="160" class="st8 st9 st10">便</tspan><tspan x="0" y="180" class="st8 st9 st10">胸水</tspan><tspan x="0" y="200" class="st8 st9 st10">腹水</tspan><tspan x="0" y="220" class="st8 st9 st10">気管支肺胞洗浄液</tspan><tspan x="0" y="240" class="st8 st9 st10">脳脊髄液</tspan><tspan x="0" y="260" class="st8 st9 st10">唾液</tspan><tspan x="0" y="280" class="st8 st9 st10">喀痰</tspan><tspan x="0" y="300" class="st8 st9 st10">組織（凍結</tspan><tspan x="70" y="300" class="st8 st9 st10 st11">）</tspan><tspan x="0" y="320" class="st8 st9 st10">組織（FFPE</tspan><tspan x="71.9" y="320" class="st8 st9 st10 st11">）</tspan><tspan x="0" y="340" class="st8 st9 st10">組織（RNAlater</tspan><tspan x="97.2" y="340" class="st8 st9 st10 st11">）</tspan><tspan x="0" y="360" class="st8 st9 st10">組織（PAXgene</tspan><tspan x="99.6" y="360" class="st8 st9 st10 st11">）</tspan><tspan x="0" y="380" class="st8 st9 st10">DNA</tspan><tspan x="0" y="400" class="st8 st9 st10">RNA</tspan><tspan x="0" y="420" class="st8 st9 st10">その他</tspan></text>
</g>
<g>
	<path class="st8" d="M508,61.5c0.3,0,0.6,0,1,0c0.7-0.1,1.4-0.4,1.9-0.9c0.6-0.5,1-1.3,1.2-2.4h0c-0.5,0.6-1.2,1-2.1,1
		c-1.6,0-2.7-1.2-2.7-2.8c0-1.7,1.2-3.2,3.1-3.2s3,1.5,3,3.8c0,2-0.7,3.4-1.6,4.3c-0.7,0.7-1.7,1.1-2.6,1.2
		c-0.4,0.1-0.8,0.1-1.1,0.1V61.5z M508.5,56.2c0,1.1,0.7,1.9,1.8,1.9c0.8,0,1.5-0.4,1.8-1c0.1-0.1,0.1-0.3,0.1-0.4
		c0-1.6-0.6-2.7-1.9-2.7C509.2,54,508.5,54.9,508.5,56.2z"/>
	<path class="st8" d="M515.2,61.5c0.3,0,0.6,0,1,0c0.7-0.1,1.4-0.4,1.9-0.9c0.6-0.5,1-1.3,1.2-2.4h0c-0.5,0.6-1.2,1-2.1,1
		c-1.6,0-2.7-1.2-2.7-2.8c0-1.7,1.2-3.2,3.1-3.2s3,1.5,3,3.8c0,2-0.7,3.4-1.6,4.3c-0.7,0.7-1.7,1.1-2.6,1.2
		c-0.4,0.1-0.8,0.1-1.1,0.1V61.5z M515.7,56.2c0,1.1,0.7,1.9,1.8,1.9c0.8,0,1.5-0.4,1.8-1c0.1-0.1,0.1-0.3,0.1-0.4
		c0-1.6-0.6-2.7-1.9-2.7C516.4,54,515.7,54.9,515.7,56.2z"/>
	<path class="st8" d="M521.3,64c0.3-0.8,0.7-2.3,0.8-3.3l1.4-0.1c-0.3,1.2-0.9,2.7-1.3,3.4L521.3,64z"/>
	<path class="st8" d="M525.3,61.5c0.3,0,0.6,0,1,0c0.7-0.1,1.4-0.4,1.9-0.9c0.6-0.5,1-1.3,1.2-2.4h0c-0.5,0.6-1.2,1-2.1,1
		c-1.6,0-2.7-1.2-2.7-2.8c0-1.7,1.2-3.2,3.1-3.2c1.9,0,3,1.5,3,3.8c0,2-0.7,3.4-1.6,4.3c-0.7,0.7-1.7,1.1-2.6,1.2
		c-0.4,0.1-0.8,0.1-1.1,0.1V61.5z M525.7,56.2c0,1.1,0.7,1.9,1.8,1.9c0.8,0,1.5-0.4,1.8-1c0.1-0.1,0.1-0.3,0.1-0.4
		c0-1.6-0.6-2.7-1.9-2.7C526.5,54,525.7,54.9,525.7,56.2z"/>
	<path class="st8" d="M532.5,61.5c0.3,0,0.6,0,1,0c0.7-0.1,1.4-0.4,1.9-0.9c0.6-0.5,1-1.3,1.2-2.4h0c-0.5,0.6-1.2,1-2.1,1
		c-1.6,0-2.7-1.2-2.7-2.8c0-1.7,1.2-3.2,3.1-3.2c1.9,0,3,1.5,3,3.8c0,2-0.7,3.4-1.6,4.3c-0.7,0.7-1.7,1.1-2.6,1.2
		c-0.4,0.1-0.8,0.1-1.1,0.1V61.5z M532.9,56.2c0,1.1,0.7,1.9,1.8,1.9c0.8,0,1.5-0.4,1.8-1c0.1-0.1,0.1-0.3,0.1-0.4
		c0-1.6-0.6-2.7-1.9-2.7C533.7,54,532.9,54.9,532.9,56.2z"/>
	<path class="st8" d="M539.7,61.5c0.3,0,0.6,0,1,0c0.7-0.1,1.4-0.4,1.9-0.9c0.6-0.5,1-1.3,1.2-2.4h0c-0.5,0.6-1.2,1-2.1,1
		c-1.6,0-2.7-1.2-2.7-2.8c0-1.7,1.2-3.2,3.1-3.2c1.9,0,3,1.5,3,3.8c0,2-0.7,3.4-1.6,4.3c-0.7,0.7-1.7,1.1-2.6,1.2
		c-0.4,0.1-0.8,0.1-1.1,0.1V61.5z M540.1,56.2c0,1.1,0.7,1.9,1.8,1.9c0.8,0,1.5-0.4,1.8-1c0.1-0.1,0.1-0.3,0.1-0.4
		c0-1.6-0.6-2.7-1.9-2.7C540.9,54,540.1,54.9,540.1,56.2z"/>
	<path class="st8" d="M545.7,64c0.3-0.8,0.7-2.3,0.8-3.3l1.4-0.1c-0.3,1.2-0.9,2.7-1.3,3.4L545.7,64z"/>
	<path class="st8" d="M549.7,61.5c0.3,0,0.6,0,1,0c0.7-0.1,1.4-0.4,1.9-0.9c0.6-0.5,1-1.3,1.2-2.4h0c-0.5,0.6-1.2,1-2.1,1
		c-1.6,0-2.7-1.2-2.7-2.8c0-1.7,1.2-3.2,3.1-3.2c1.9,0,3,1.5,3,3.8c0,2-0.7,3.4-1.6,4.3c-0.7,0.7-1.7,1.1-2.6,1.2
		c-0.4,0.1-0.8,0.1-1.1,0.1V61.5z M550.2,56.2c0,1.1,0.7,1.9,1.8,1.9c0.8,0,1.5-0.4,1.8-1c0.1-0.1,0.1-0.3,0.1-0.4
		c0-1.6-0.6-2.7-1.9-2.7C550.9,54,550.2,54.9,550.2,56.2z"/>
	<path class="st8" d="M556.9,61.5c0.3,0,0.6,0,1,0c0.7-0.1,1.4-0.4,1.9-0.9c0.6-0.5,1-1.3,1.2-2.4h0c-0.5,0.6-1.2,1-2.1,1
		c-1.6,0-2.7-1.2-2.7-2.8c0-1.7,1.2-3.2,3.1-3.2c1.9,0,3,1.5,3,3.8c0,2-0.7,3.4-1.6,4.3c-0.7,0.7-1.7,1.1-2.6,1.2
		c-0.4,0.1-0.8,0.1-1.1,0.1V61.5z M557.4,56.2c0,1.1,0.7,1.9,1.8,1.9c0.8,0,1.5-0.4,1.8-1c0.1-0.1,0.1-0.3,0.1-0.4
		c0-1.6-0.6-2.7-1.9-2.7C558.1,54,557.4,54.9,557.4,56.2z"/>
	<path class="st8" d="M564.1,61.5c0.3,0,0.6,0,1,0c0.7-0.1,1.4-0.4,1.9-0.9c0.6-0.5,1-1.3,1.2-2.4h0c-0.5,0.6-1.2,1-2.1,1
		c-1.6,0-2.7-1.2-2.7-2.8c0-1.7,1.2-3.2,3.1-3.2c1.9,0,3,1.5,3,3.8c0,2-0.7,3.4-1.6,4.3c-0.7,0.7-1.7,1.1-2.6,1.2
		c-0.4,0.1-0.8,0.1-1.1,0.1V61.5z M564.6,56.2c0,1.1,0.7,1.9,1.8,1.9c0.8,0,1.5-0.4,1.8-1c0.1-0.1,0.1-0.3,0.1-0.4
		c0-1.6-0.6-2.7-1.9-2.7C565.3,54,564.6,54.9,564.6,56.2z"/>
	<path class="st8" d="M507.2,80c0-1.1,0.7-2,1.8-2.4l0,0c-1-0.5-1.4-1.3-1.4-2c0-1.4,1.2-2.4,2.8-2.4c1.8,0,2.6,1.1,2.6,2.2
		c0,0.8-0.4,1.6-1.5,2.1v0c1.1,0.4,1.8,1.2,1.8,2.4c0,1.6-1.4,2.6-3.1,2.6C508.4,82.5,507.2,81.3,507.2,80z M512.1,80
		c0-1.1-0.8-1.6-2-2c-1.1,0.3-1.6,1-1.6,1.9c0,0.9,0.7,1.7,1.8,1.7C511.4,81.6,512.1,80.9,512.1,80z M508.7,75.4
		c0,0.9,0.7,1.4,1.7,1.7c0.8-0.3,1.4-0.8,1.4-1.7c0-0.7-0.4-1.5-1.5-1.5C509.3,73.9,508.7,74.6,508.7,75.4z"/>
	<path class="st8" d="M514.4,80c0-1.1,0.7-2,1.8-2.4l0,0c-1-0.5-1.4-1.3-1.4-2c0-1.4,1.2-2.4,2.8-2.4c1.8,0,2.6,1.1,2.6,2.2
		c0,0.8-0.4,1.6-1.5,2.1v0c1.1,0.4,1.8,1.2,1.8,2.4c0,1.6-1.4,2.6-3.1,2.6C515.5,82.5,514.4,81.3,514.4,80z M519.3,80
		c0-1.1-0.8-1.6-2-2c-1.1,0.3-1.6,1-1.6,1.9c0,0.9,0.7,1.7,1.8,1.7C518.6,81.6,519.3,80.9,519.3,80z M515.9,75.4
		c0,0.9,0.7,1.4,1.7,1.7c0.8-0.3,1.4-0.8,1.4-1.7c0-0.7-0.4-1.5-1.5-1.5C516.5,73.9,515.9,74.6,515.9,75.4z"/>
	<path class="st8" d="M521.3,84c0.3-0.8,0.7-2.3,0.8-3.3l1.4-0.1c-0.3,1.2-0.9,2.7-1.3,3.4L521.3,84z"/>
	<path class="st8" d="M524.5,80c0-1.1,0.7-2,1.8-2.4l0,0c-1-0.5-1.4-1.3-1.4-2c0-1.4,1.2-2.4,2.8-2.4c1.8,0,2.6,1.1,2.6,2.2
		c0,0.8-0.4,1.6-1.5,2.1v0c1.1,0.4,1.8,1.2,1.8,2.4c0,1.6-1.4,2.6-3.1,2.6C525.6,82.5,524.5,81.3,524.5,80z M529.4,80
		c0-1.1-0.8-1.6-2-2c-1.1,0.3-1.6,1-1.6,1.9c0,0.9,0.7,1.7,1.8,1.7C528.7,81.6,529.4,80.9,529.4,80z M526,75.4
		c0,0.9,0.7,1.4,1.7,1.7c0.8-0.3,1.4-0.8,1.4-1.7c0-0.7-0.4-1.5-1.5-1.5C526.5,73.9,526,74.6,526,75.4z"/>
	<path class="st8" d="M531.7,80c0-1.1,0.7-2,1.8-2.4l0,0c-1-0.5-1.4-1.3-1.4-2c0-1.4,1.2-2.4,2.8-2.4c1.8,0,2.6,1.1,2.6,2.2
		c0,0.8-0.4,1.6-1.5,2.1v0c1.1,0.4,1.8,1.2,1.8,2.4c0,1.6-1.4,2.6-3.1,2.6C532.8,82.5,531.7,81.3,531.7,80z M536.6,80
		c0-1.1-0.8-1.6-2-2c-1.1,0.3-1.6,1-1.6,1.9c0,0.9,0.7,1.7,1.8,1.7C535.8,81.6,536.6,80.9,536.6,80z M533.2,75.4
		c0,0.9,0.7,1.4,1.7,1.7c0.8-0.3,1.4-0.8,1.4-1.7c0-0.7-0.4-1.5-1.5-1.5C533.7,73.9,533.2,74.6,533.2,75.4z"/>
	<path class="st8" d="M538.8,80c0-1.1,0.7-2,1.8-2.4l0,0c-1-0.5-1.4-1.3-1.4-2c0-1.4,1.2-2.4,2.8-2.4c1.8,0,2.6,1.1,2.6,2.2
		c0,0.8-0.4,1.6-1.5,2.1v0c1.1,0.4,1.8,1.2,1.8,2.4c0,1.6-1.4,2.6-3.1,2.6C540,82.5,538.8,81.3,538.8,80z M543.7,80
		c0-1.1-0.8-1.6-2-2c-1.1,0.3-1.6,1-1.6,1.9c0,0.9,0.7,1.7,1.8,1.7C543,81.6,543.7,80.9,543.7,80z M540.3,75.4
		c0,0.9,0.7,1.4,1.7,1.7c0.8-0.3,1.4-0.8,1.4-1.7c0-0.7-0.4-1.5-1.5-1.5C540.9,73.9,540.3,74.6,540.3,75.4z"/>
	<path class="st8" d="M545.7,84c0.3-0.8,0.7-2.3,0.8-3.3l1.4-0.1c-0.3,1.2-0.9,2.7-1.3,3.4L545.7,84z"/>
	<path class="st8" d="M548.9,80c0-1.1,0.7-2,1.8-2.4l0,0c-1-0.5-1.4-1.3-1.4-2c0-1.4,1.2-2.4,2.8-2.4c1.8,0,2.6,1.1,2.6,2.2
		c0,0.8-0.4,1.6-1.5,2.1v0c1.1,0.4,1.8,1.2,1.8,2.4c0,1.6-1.4,2.6-3.1,2.6C550.1,82.5,548.9,81.3,548.9,80z M553.8,80
		c0-1.1-0.8-1.6-2-2c-1.1,0.3-1.6,1-1.6,1.9c0,0.9,0.7,1.7,1.8,1.7C553.1,81.6,553.8,80.9,553.8,80z M550.4,75.4
		c0,0.9,0.7,1.4,1.7,1.7c0.8-0.3,1.4-0.8,1.4-1.7c0-0.7-0.4-1.5-1.5-1.5C551,73.9,550.4,74.6,550.4,75.4z"/>
	<path class="st8" d="M556.1,80c0-1.1,0.7-2,1.8-2.4l0,0c-1-0.5-1.4-1.3-1.4-2c0-1.4,1.2-2.4,2.8-2.4c1.8,0,2.6,1.1,2.6,2.2
		c0,0.8-0.4,1.6-1.5,2.1v0c1.1,0.4,1.8,1.2,1.8,2.4c0,1.6-1.4,2.6-3.1,2.6C557.2,82.5,556.1,81.3,556.1,80z M561,80
		c0-1.1-0.8-1.6-2-2c-1.1,0.3-1.6,1-1.6,1.9c0,0.9,0.7,1.7,1.8,1.7C560.3,81.6,561,80.9,561,80z M557.6,75.4c0,0.9,0.7,1.4,1.7,1.7
		c0.8-0.3,1.4-0.8,1.4-1.7c0-0.7-0.4-1.5-1.5-1.5C558.2,73.9,557.6,74.6,557.6,75.4z"/>
	<path class="st8" d="M563.3,80c0-1.1,0.7-2,1.8-2.4l0,0c-1-0.5-1.4-1.3-1.4-2c0-1.4,1.2-2.4,2.8-2.4c1.8,0,2.6,1.1,2.6,2.2
		c0,0.8-0.4,1.6-1.5,2.1v0c1.1,0.4,1.8,1.2,1.8,2.4c0,1.6-1.4,2.6-3.1,2.6C564.4,82.5,563.3,81.3,563.3,80z M568.2,80
		c0-1.1-0.8-1.6-2-2c-1.1,0.3-1.6,1-1.6,1.9c0,0.9,0.7,1.7,1.8,1.7C567.5,81.6,568.2,80.9,568.2,80z M564.8,75.4
		c0,0.9,0.7,1.4,1.7,1.7c0.8-0.3,1.4-0.8,1.4-1.7c0-0.7-0.4-1.5-1.5-1.5C565.3,73.9,564.8,74.6,564.8,75.4z"/>
	<path class="st8" d="M513.2,93.2V94l-4,8.3H508l3.9-8.1v0h-4.5v-1H513.2z"/>
	<path class="st8" d="M520.6,97.7c0,3.1-1.1,4.8-3.2,4.8c-1.8,0-3-1.7-3-4.7c0-3.1,1.3-4.7,3.2-4.7
		C519.5,93.1,520.6,94.8,520.6,97.7z M515.6,97.8c0,2.4,0.7,3.7,1.8,3.7c1.3,0,1.9-1.5,1.9-3.8c0-2.2-0.6-3.7-1.8-3.7
		C516.4,94,515.6,95.3,515.6,97.8z"/>
	<path class="st8" d="M521.3,104c0.3-0.8,0.7-2.3,0.8-3.3l1.4-0.1c-0.3,1.2-0.9,2.7-1.3,3.4L521.3,104z"/>
	<path class="st8" d="M530.6,97.7c0,3.1-1.1,4.8-3.2,4.8c-1.8,0-3-1.7-3-4.7c0-3.1,1.3-4.7,3.2-4.7
		C529.5,93.1,530.6,94.8,530.6,97.7z M525.7,97.8c0,2.4,0.7,3.7,1.8,3.7c1.3,0,1.9-1.5,1.9-3.8c0-2.2-0.6-3.7-1.8-3.7
		C526.5,94,525.7,95.3,525.7,97.8z"/>
	<path class="st8" d="M537.8,97.7c0,3.1-1.1,4.8-3.2,4.8c-1.8,0-3-1.7-3-4.7c0-3.1,1.3-4.7,3.2-4.7
		C536.7,93.1,537.8,94.8,537.8,97.7z M532.9,97.8c0,2.4,0.7,3.7,1.8,3.7c1.3,0,1.9-1.5,1.9-3.8c0-2.2-0.6-3.7-1.8-3.7
		C533.7,94,532.9,95.3,532.9,97.8z"/>
	<path class="st8" d="M545,97.7c0,3.1-1.1,4.8-3.2,4.8c-1.8,0-3-1.7-3-4.7c0-3.1,1.3-4.7,3.2-4.7C543.9,93.1,545,94.8,545,97.7z
		 M540.1,97.8c0,2.4,0.7,3.7,1.8,3.7c1.3,0,1.9-1.5,1.9-3.8c0-2.2-0.6-3.7-1.8-3.7C540.8,94,540.1,95.3,540.1,97.8z"/>
	<path class="st8" d="M545.7,104c0.3-0.8,0.7-2.3,0.8-3.3l1.4-0.1c-0.3,1.2-0.9,2.7-1.3,3.4L545.7,104z"/>
	<path class="st8" d="M555.1,97.7c0,3.1-1.1,4.8-3.2,4.8c-1.8,0-3-1.7-3-4.7c0-3.1,1.3-4.7,3.2-4.7C554,93.1,555.1,94.8,555.1,97.7z
		 M550.1,97.8c0,2.4,0.7,3.7,1.8,3.7c1.3,0,1.9-1.5,1.9-3.8c0-2.2-0.6-3.7-1.8-3.7C550.9,94,550.1,95.3,550.1,97.8z"/>
	<path class="st8" d="M562.3,97.7c0,3.1-1.1,4.8-3.2,4.8c-1.8,0-3-1.7-3-4.7c0-3.1,1.3-4.7,3.2-4.7
		C561.2,93.1,562.3,94.8,562.3,97.7z M557.3,97.8c0,2.4,0.7,3.7,1.8,3.7c1.3,0,1.9-1.5,1.9-3.8c0-2.2-0.6-3.7-1.8-3.7
		C558.1,94,557.3,95.3,557.3,97.8z"/>
	<path class="st8" d="M569.4,97.7c0,3.1-1.1,4.8-3.2,4.8c-1.8,0-3-1.7-3-4.7c0-3.1,1.3-4.7,3.2-4.7
		C568.3,93.1,569.4,94.8,569.4,97.7z M564.5,97.8c0,2.4,0.7,3.7,1.8,3.7c1.3,0,1.9-1.5,1.9-3.8c0-2.2-0.6-3.7-1.8-3.7
		C565.3,94,564.5,95.3,564.5,97.8z"/>
	<path class="st8" d="M512.5,114.1c-0.3,0-0.6,0-0.9,0.1c-1.9,0.3-3,1.7-3.2,3.2h0c0.4-0.6,1.2-1.1,2.2-1.1c1.6,0,2.7,1.2,2.7,2.9
		c0,1.7-1.1,3.2-3,3.2c-1.9,0-3.2-1.5-3.2-3.9c0-1.8,0.6-3.2,1.5-4.1c0.8-0.7,1.8-1.2,2.9-1.3c0.4-0.1,0.7-0.1,0.9-0.1V114.1z
		 M512.2,119.3c0-1.3-0.7-2.1-1.9-2.1c-0.7,0-1.4,0.5-1.8,1.1c-0.1,0.1-0.1,0.3-0.1,0.5c0,1.5,0.7,2.6,2,2.6
		C511.5,121.5,512.2,120.6,512.2,119.3z"/>
	<path class="st8" d="M520.6,117.7c0,3.1-1.1,4.8-3.2,4.8c-1.8,0-3-1.7-3-4.7c0-3.1,1.3-4.7,3.2-4.7
		C519.5,113.1,520.6,114.8,520.6,117.7z M515.6,117.8c0,2.4,0.7,3.7,1.8,3.7c1.3,0,1.9-1.5,1.9-3.8c0-2.2-0.6-3.7-1.8-3.7
		C516.4,114,515.6,115.3,515.6,117.8z"/>
	<path class="st8" d="M521.3,124c0.3-0.8,0.7-2.3,0.8-3.3l1.4-0.1c-0.3,1.2-0.9,2.7-1.3,3.4L521.3,124z"/>
	<path class="st8" d="M530.6,117.7c0,3.1-1.1,4.8-3.2,4.8c-1.8,0-3-1.7-3-4.7c0-3.1,1.3-4.7,3.2-4.7
		C529.5,113.1,530.6,114.8,530.6,117.7z M525.7,117.8c0,2.4,0.7,3.7,1.8,3.7c1.3,0,1.9-1.5,1.9-3.8c0-2.2-0.6-3.7-1.8-3.7
		C526.5,114,525.7,115.3,525.7,117.8z"/>
	<path class="st8" d="M537.8,117.7c0,3.1-1.1,4.8-3.2,4.8c-1.8,0-3-1.7-3-4.7c0-3.1,1.3-4.7,3.2-4.7
		C536.7,113.1,537.8,114.8,537.8,117.7z M532.9,117.8c0,2.4,0.7,3.7,1.8,3.7c1.3,0,1.9-1.5,1.9-3.8c0-2.2-0.6-3.7-1.8-3.7
		C533.7,114,532.9,115.3,532.9,117.8z"/>
	<path class="st8" d="M545,117.7c0,3.1-1.1,4.8-3.2,4.8c-1.8,0-3-1.7-3-4.7c0-3.1,1.3-4.7,3.2-4.7C543.9,113.1,545,114.8,545,117.7z
		 M540.1,117.8c0,2.4,0.7,3.7,1.8,3.7c1.3,0,1.9-1.5,1.9-3.8c0-2.2-0.6-3.7-1.8-3.7C540.8,114,540.1,115.3,540.1,117.8z"/>
	<path class="st8" d="M545.7,124c0.3-0.8,0.7-2.3,0.8-3.3l1.4-0.1c-0.3,1.2-0.9,2.7-1.3,3.4L545.7,124z"/>
	<path class="st8" d="M555.1,117.7c0,3.1-1.1,4.8-3.2,4.8c-1.8,0-3-1.7-3-4.7c0-3.1,1.3-4.7,3.2-4.7
		C554,113.1,555.1,114.8,555.1,117.7z M550.1,117.8c0,2.4,0.7,3.7,1.8,3.7c1.3,0,1.9-1.5,1.9-3.8c0-2.2-0.6-3.7-1.8-3.7
		C550.9,114,550.1,115.3,550.1,117.8z"/>
	<path class="st8" d="M562.3,117.7c0,3.1-1.1,4.8-3.2,4.8c-1.8,0-3-1.7-3-4.7c0-3.1,1.3-4.7,3.2-4.7
		C561.2,113.1,562.3,114.8,562.3,117.7z M557.3,117.8c0,2.4,0.7,3.7,1.8,3.7c1.3,0,1.9-1.5,1.9-3.8c0-2.2-0.6-3.7-1.8-3.7
		C558.1,114,557.3,115.3,557.3,117.8z"/>
	<path class="st8" d="M569.4,117.7c0,3.1-1.1,4.8-3.2,4.8c-1.8,0-3-1.7-3-4.7c0-3.1,1.3-4.7,3.2-4.7
		C568.3,113.1,569.4,114.8,569.4,117.7z M564.5,117.8c0,2.4,0.7,3.7,1.8,3.7c1.3,0,1.9-1.5,1.9-3.8c0-2.2-0.6-3.7-1.8-3.7
		C565.3,114,564.5,115.3,564.5,117.8z"/>
	<path class="st8" d="M512.8,134.3h-3.5l-0.4,2.3c0.2,0,0.4-0.1,0.7-0.1c0.7,0,1.4,0.2,2,0.5c0.7,0.4,1.3,1.2,1.3,2.3
		c0,1.8-1.4,3.1-3.4,3.1c-1,0-1.8-0.3-2.3-0.6l0.3-0.9c0.4,0.2,1.1,0.5,1.9,0.5c1.2,0,2.2-0.8,2.2-2c0-1.2-0.8-2-2.6-2
		c-0.5,0-0.9,0.1-1.3,0.1l0.6-4.4h4.4V134.3z"/>
	<path class="st8" d="M520.6,137.7c0,3.1-1.1,4.8-3.2,4.8c-1.8,0-3-1.7-3-4.7c0-3.1,1.3-4.7,3.2-4.7
		C519.5,133.1,520.6,134.8,520.6,137.7z M515.6,137.8c0,2.4,0.7,3.7,1.8,3.7c1.3,0,1.9-1.5,1.9-3.8c0-2.2-0.6-3.7-1.8-3.7
		C516.4,134,515.6,135.3,515.6,137.8z"/>
	<path class="st8" d="M521.3,144c0.3-0.8,0.7-2.3,0.8-3.3l1.4-0.1c-0.3,1.2-0.9,2.7-1.3,3.4L521.3,144z"/>
	<path class="st8" d="M530.6,137.7c0,3.1-1.1,4.8-3.2,4.8c-1.8,0-3-1.7-3-4.7c0-3.1,1.3-4.7,3.2-4.7
		C529.5,133.1,530.6,134.8,530.6,137.7z M525.7,137.8c0,2.4,0.7,3.7,1.8,3.7c1.3,0,1.9-1.5,1.9-3.8c0-2.2-0.6-3.7-1.8-3.7
		C526.5,134,525.7,135.3,525.7,137.8z"/>
	<path class="st8" d="M537.8,137.7c0,3.1-1.1,4.8-3.2,4.8c-1.8,0-3-1.7-3-4.7c0-3.1,1.3-4.7,3.2-4.7
		C536.7,133.1,537.8,134.8,537.8,137.7z M532.9,137.8c0,2.4,0.7,3.7,1.8,3.7c1.3,0,1.9-1.5,1.9-3.8c0-2.2-0.6-3.7-1.8-3.7
		C533.7,134,532.9,135.3,532.9,137.8z"/>
	<path class="st8" d="M545,137.7c0,3.1-1.1,4.8-3.2,4.8c-1.8,0-3-1.7-3-4.7c0-3.1,1.3-4.7,3.2-4.7C543.9,133.1,545,134.8,545,137.7z
		 M540.1,137.8c0,2.4,0.7,3.7,1.8,3.7c1.3,0,1.9-1.5,1.9-3.8c0-2.2-0.6-3.7-1.8-3.7C540.8,134,540.1,135.3,540.1,137.8z"/>
	<path class="st8" d="M545.7,144c0.3-0.8,0.7-2.3,0.8-3.3l1.4-0.1c-0.3,1.2-0.9,2.7-1.3,3.4L545.7,144z"/>
	<path class="st8" d="M555.1,137.7c0,3.1-1.1,4.8-3.2,4.8c-1.8,0-3-1.7-3-4.7c0-3.1,1.3-4.7,3.2-4.7
		C554,133.1,555.1,134.8,555.1,137.7z M550.1,137.8c0,2.4,0.7,3.7,1.8,3.7c1.3,0,1.9-1.5,1.9-3.8c0-2.2-0.6-3.7-1.8-3.7
		C550.9,134,550.1,135.3,550.1,137.8z"/>
	<path class="st8" d="M562.3,137.7c0,3.1-1.1,4.8-3.2,4.8c-1.8,0-3-1.7-3-4.7c0-3.1,1.3-4.7,3.2-4.7
		C561.2,133.1,562.3,134.8,562.3,137.7z M557.3,137.8c0,2.4,0.7,3.7,1.8,3.7c1.3,0,1.9-1.5,1.9-3.8c0-2.2-0.6-3.7-1.8-3.7
		C558.1,134,557.3,135.3,557.3,137.8z"/>
	<path class="st8" d="M569.4,137.7c0,3.1-1.1,4.8-3.2,4.8c-1.8,0-3-1.7-3-4.7c0-3.1,1.3-4.7,3.2-4.7
		C568.3,133.1,569.4,134.8,569.4,137.7z M564.5,137.8c0,2.4,0.7,3.7,1.8,3.7c1.3,0,1.9-1.5,1.9-3.8c0-2.2-0.6-3.7-1.8-3.7
		C565.3,134,564.5,135.3,564.5,137.8z"/>
	<path class="st8" d="M511.1,162.3v-2.5h-4.2V159l4.1-5.8h1.3v5.7h1.3v1h-1.3v2.5H511.1z M511.1,158.9v-3c0-0.5,0-1,0-1.4h0
		c-0.3,0.5-0.5,0.9-0.8,1.3l-2.2,3.1v0H511.1z"/>
	<path class="st8" d="M520.6,157.7c0,3.1-1.1,4.8-3.2,4.8c-1.8,0-3-1.7-3-4.7c0-3.1,1.3-4.7,3.2-4.7
		C519.5,153.1,520.6,154.8,520.6,157.7z M515.6,157.8c0,2.4,0.7,3.7,1.8,3.7c1.3,0,1.9-1.5,1.9-3.8c0-2.2-0.6-3.7-1.8-3.7
		C516.4,154,515.6,155.3,515.6,157.8z"/>
	<path class="st8" d="M521.3,164c0.3-0.8,0.7-2.3,0.8-3.3l1.4-0.1c-0.3,1.2-0.9,2.7-1.3,3.4L521.3,164z"/>
	<path class="st8" d="M530.6,157.7c0,3.1-1.1,4.8-3.2,4.8c-1.8,0-3-1.7-3-4.7c0-3.1,1.3-4.7,3.2-4.7
		C529.5,153.1,530.6,154.8,530.6,157.7z M525.7,157.8c0,2.4,0.7,3.7,1.8,3.7c1.3,0,1.9-1.5,1.9-3.8c0-2.2-0.6-3.7-1.8-3.7
		C526.5,154,525.7,155.3,525.7,157.8z"/>
	<path class="st8" d="M537.8,157.7c0,3.1-1.1,4.8-3.2,4.8c-1.8,0-3-1.7-3-4.7c0-3.1,1.3-4.7,3.2-4.7
		C536.7,153.1,537.8,154.8,537.8,157.7z M532.9,157.8c0,2.4,0.7,3.7,1.8,3.7c1.3,0,1.9-1.5,1.9-3.8c0-2.2-0.6-3.7-1.8-3.7
		C533.7,154,532.9,155.3,532.9,157.8z"/>
	<path class="st8" d="M545,157.7c0,3.1-1.1,4.8-3.2,4.8c-1.8,0-3-1.7-3-4.7c0-3.1,1.3-4.7,3.2-4.7C543.9,153.1,545,154.8,545,157.7z
		 M540.1,157.8c0,2.4,0.7,3.7,1.8,3.7c1.3,0,1.9-1.5,1.9-3.8c0-2.2-0.6-3.7-1.8-3.7C540.8,154,540.1,155.3,540.1,157.8z"/>
	<path class="st8" d="M545.7,164c0.3-0.8,0.7-2.3,0.8-3.3l1.4-0.1c-0.3,1.2-0.9,2.7-1.3,3.4L545.7,164z"/>
	<path class="st8" d="M555.1,157.7c0,3.1-1.1,4.8-3.2,4.8c-1.8,0-3-1.7-3-4.7c0-3.1,1.3-4.7,3.2-4.7
		C554,153.1,555.1,154.8,555.1,157.7z M550.1,157.8c0,2.4,0.7,3.7,1.8,3.7c1.3,0,1.9-1.5,1.9-3.8c0-2.2-0.6-3.7-1.8-3.7
		C550.9,154,550.1,155.3,550.1,157.8z"/>
	<path class="st8" d="M562.3,157.7c0,3.1-1.1,4.8-3.2,4.8c-1.8,0-3-1.7-3-4.7c0-3.1,1.3-4.7,3.2-4.7
		C561.2,153.1,562.3,154.8,562.3,157.7z M557.3,157.8c0,2.4,0.7,3.7,1.8,3.7c1.3,0,1.9-1.5,1.9-3.8c0-2.2-0.6-3.7-1.8-3.7
		C558.1,154,557.3,155.3,557.3,157.8z"/>
	<path class="st8" d="M569.4,157.7c0,3.1-1.1,4.8-3.2,4.8c-1.8,0-3-1.7-3-4.7c0-3.1,1.3-4.7,3.2-4.7
		C568.3,153.1,569.4,154.8,569.4,157.7z M564.5,157.8c0,2.4,0.7,3.7,1.8,3.7c1.3,0,1.9-1.5,1.9-3.8c0-2.2-0.6-3.7-1.8-3.7
		C565.3,154,564.5,155.3,564.5,157.8z"/>
	<path class="st8" d="M507.6,180.9c0.4,0.2,1.2,0.6,2,0.6c1.6,0,2.1-1,2.1-1.8c0-1.3-1.2-1.8-2.4-1.8h-0.7V177h0.7
		c0.9,0,2-0.5,2-1.5c0-0.7-0.5-1.4-1.6-1.4c-0.7,0-1.4,0.3-1.8,0.6l-0.3-0.9c0.5-0.4,1.4-0.7,2.4-0.7c1.8,0,2.6,1.1,2.6,2.2
		c0,0.9-0.6,1.7-1.7,2.1v0c1.1,0.2,2,1.1,2,2.3c0,1.5-1.1,2.7-3.3,2.7c-1,0-1.9-0.3-2.4-0.6L507.6,180.9z"/>
	<path class="st8" d="M520.6,177.7c0,3.1-1.1,4.8-3.2,4.8c-1.8,0-3-1.7-3-4.7c0-3.1,1.3-4.7,3.2-4.7
		C519.5,173.1,520.6,174.8,520.6,177.7z M515.6,177.8c0,2.4,0.7,3.7,1.8,3.7c1.3,0,1.9-1.5,1.9-3.8c0-2.2-0.6-3.7-1.8-3.7
		C516.4,174,515.6,175.3,515.6,177.8z"/>
	<path class="st8" d="M521.3,184c0.3-0.8,0.7-2.3,0.8-3.3l1.4-0.1c-0.3,1.2-0.9,2.7-1.3,3.4L521.3,184z"/>
	<path class="st8" d="M530.6,177.7c0,3.1-1.1,4.8-3.2,4.8c-1.8,0-3-1.7-3-4.7c0-3.1,1.3-4.7,3.2-4.7
		C529.5,173.1,530.6,174.8,530.6,177.7z M525.7,177.8c0,2.4,0.7,3.7,1.8,3.7c1.3,0,1.9-1.5,1.9-3.8c0-2.2-0.6-3.7-1.8-3.7
		C526.5,174,525.7,175.3,525.7,177.8z"/>
	<path class="st8" d="M537.8,177.7c0,3.1-1.1,4.8-3.2,4.8c-1.8,0-3-1.7-3-4.7c0-3.1,1.3-4.7,3.2-4.7
		C536.7,173.1,537.8,174.8,537.8,177.7z M532.9,177.8c0,2.4,0.7,3.7,1.8,3.7c1.3,0,1.9-1.5,1.9-3.8c0-2.2-0.6-3.7-1.8-3.7
		C533.7,174,532.9,175.3,532.9,177.8z"/>
	<path class="st8" d="M545,177.7c0,3.1-1.1,4.8-3.2,4.8c-1.8,0-3-1.7-3-4.7c0-3.1,1.3-4.7,3.2-4.7C543.9,173.1,545,174.8,545,177.7z
		 M540.1,177.8c0,2.4,0.7,3.7,1.8,3.7c1.3,0,1.9-1.5,1.9-3.8c0-2.2-0.6-3.7-1.8-3.7C540.8,174,540.1,175.3,540.1,177.8z"/>
	<path class="st8" d="M545.7,184c0.3-0.8,0.7-2.3,0.8-3.3l1.4-0.1c-0.3,1.2-0.9,2.7-1.3,3.4L545.7,184z"/>
	<path class="st8" d="M555.1,177.7c0,3.1-1.1,4.8-3.2,4.8c-1.8,0-3-1.7-3-4.7c0-3.1,1.3-4.7,3.2-4.7
		C554,173.1,555.1,174.8,555.1,177.7z M550.1,177.8c0,2.4,0.7,3.7,1.8,3.7c1.3,0,1.9-1.5,1.9-3.8c0-2.2-0.6-3.7-1.8-3.7
		C550.9,174,550.1,175.3,550.1,177.8z"/>
	<path class="st8" d="M562.3,177.7c0,3.1-1.1,4.8-3.2,4.8c-1.8,0-3-1.7-3-4.7c0-3.1,1.3-4.7,3.2-4.7
		C561.2,173.1,562.3,174.8,562.3,177.7z M557.3,177.8c0,2.4,0.7,3.7,1.8,3.7c1.3,0,1.9-1.5,1.9-3.8c0-2.2-0.6-3.7-1.8-3.7
		C558.1,174,557.3,175.3,557.3,177.8z"/>
	<path class="st8" d="M569.4,177.7c0,3.1-1.1,4.8-3.2,4.8c-1.8,0-3-1.7-3-4.7c0-3.1,1.3-4.7,3.2-4.7
		C568.3,173.1,569.4,174.8,569.4,177.7z M564.5,177.8c0,2.4,0.7,3.7,1.8,3.7c1.3,0,1.9-1.5,1.9-3.8c0-2.2-0.6-3.7-1.8-3.7
		C565.3,174,564.5,175.3,564.5,177.8z"/>
	<path class="st8" d="M507.3,202.3v-0.8l1-0.9c2.3-2.2,3.4-3.4,3.4-4.8c0-0.9-0.4-1.8-1.8-1.8c-0.8,0-1.5,0.4-1.9,0.8l-0.4-0.9
		c0.6-0.5,1.5-0.9,2.6-0.9c2,0,2.8,1.3,2.8,2.6c0,1.7-1.2,3-3.1,4.9l-0.7,0.7v0h4.1v1H507.3z"/>
	<path class="st8" d="M520.6,197.7c0,3.1-1.1,4.8-3.2,4.8c-1.8,0-3-1.7-3-4.7c0-3.1,1.3-4.7,3.2-4.7
		C519.5,193.1,520.6,194.8,520.6,197.7z M515.6,197.8c0,2.4,0.7,3.7,1.8,3.7c1.3,0,1.9-1.5,1.9-3.8c0-2.2-0.6-3.7-1.8-3.7
		C516.4,194,515.6,195.3,515.6,197.8z"/>
	<path class="st8" d="M521.3,204c0.3-0.8,0.7-2.3,0.8-3.3l1.4-0.1c-0.3,1.2-0.9,2.7-1.3,3.4L521.3,204z"/>
	<path class="st8" d="M530.6,197.7c0,3.1-1.1,4.8-3.2,4.8c-1.8,0-3-1.7-3-4.7c0-3.1,1.3-4.7,3.2-4.7
		C529.5,193.1,530.6,194.8,530.6,197.7z M525.7,197.8c0,2.4,0.7,3.7,1.8,3.7c1.3,0,1.9-1.5,1.9-3.8c0-2.2-0.6-3.7-1.8-3.7
		C526.5,194,525.7,195.3,525.7,197.8z"/>
	<path class="st8" d="M537.8,197.7c0,3.1-1.1,4.8-3.2,4.8c-1.8,0-3-1.7-3-4.7c0-3.1,1.3-4.7,3.2-4.7
		C536.7,193.1,537.8,194.8,537.8,197.7z M532.9,197.8c0,2.4,0.7,3.7,1.8,3.7c1.3,0,1.9-1.5,1.9-3.8c0-2.2-0.6-3.7-1.8-3.7
		C533.7,194,532.9,195.3,532.9,197.8z"/>
	<path class="st8" d="M545,197.7c0,3.1-1.1,4.8-3.2,4.8c-1.8,0-3-1.7-3-4.7c0-3.1,1.3-4.7,3.2-4.7C543.9,193.1,545,194.8,545,197.7z
		 M540.1,197.8c0,2.4,0.7,3.7,1.8,3.7c1.3,0,1.9-1.5,1.9-3.8c0-2.2-0.6-3.7-1.8-3.7C540.8,194,540.1,195.3,540.1,197.8z"/>
	<path class="st8" d="M545.7,204c0.3-0.8,0.7-2.3,0.8-3.3l1.4-0.1c-0.3,1.2-0.9,2.7-1.3,3.4L545.7,204z"/>
	<path class="st8" d="M555.1,197.7c0,3.1-1.1,4.8-3.2,4.8c-1.8,0-3-1.7-3-4.7c0-3.1,1.3-4.7,3.2-4.7
		C554,193.1,555.1,194.8,555.1,197.7z M550.1,197.8c0,2.4,0.7,3.7,1.8,3.7c1.3,0,1.9-1.5,1.9-3.8c0-2.2-0.6-3.7-1.8-3.7
		C550.9,194,550.1,195.3,550.1,197.8z"/>
	<path class="st8" d="M562.3,197.7c0,3.1-1.1,4.8-3.2,4.8c-1.8,0-3-1.7-3-4.7c0-3.1,1.3-4.7,3.2-4.7
		C561.2,193.1,562.3,194.8,562.3,197.7z M557.3,197.8c0,2.4,0.7,3.7,1.8,3.7c1.3,0,1.9-1.5,1.9-3.8c0-2.2-0.6-3.7-1.8-3.7
		C558.1,194,557.3,195.3,557.3,197.8z"/>
	<path class="st8" d="M569.4,197.7c0,3.1-1.1,4.8-3.2,4.8c-1.8,0-3-1.7-3-4.7c0-3.1,1.3-4.7,3.2-4.7
		C568.3,193.1,569.4,194.8,569.4,197.7z M564.5,197.8c0,2.4,0.7,3.7,1.8,3.7c1.3,0,1.9-1.5,1.9-3.8c0-2.2-0.6-3.7-1.8-3.7
		C565.3,194,564.5,195.3,564.5,197.8z"/>
	<path class="st8" d="M510,214.4L510,214.4l-1.6,0.9l-0.2-0.9l2-1.1h1.1v9.1H510V214.4z"/>
	<path class="st8" d="M520.6,217.7c0,3.1-1.1,4.8-3.2,4.8c-1.8,0-3-1.7-3-4.7c0-3.1,1.3-4.7,3.2-4.7
		C519.5,213.1,520.6,214.8,520.6,217.7z M515.6,217.8c0,2.4,0.7,3.7,1.8,3.7c1.3,0,1.9-1.5,1.9-3.8c0-2.2-0.6-3.7-1.8-3.7
		C516.4,214,515.6,215.3,515.6,217.8z"/>
	<path class="st8" d="M521.3,224c0.3-0.8,0.7-2.3,0.8-3.3l1.4-0.1c-0.3,1.2-0.9,2.7-1.3,3.4L521.3,224z"/>
	<path class="st8" d="M530.6,217.7c0,3.1-1.1,4.8-3.2,4.8c-1.8,0-3-1.7-3-4.7c0-3.1,1.3-4.7,3.2-4.7
		C529.5,213.1,530.6,214.8,530.6,217.7z M525.7,217.8c0,2.4,0.7,3.7,1.8,3.7c1.3,0,1.9-1.5,1.9-3.8c0-2.2-0.6-3.7-1.8-3.7
		C526.5,214,525.7,215.3,525.7,217.8z"/>
	<path class="st8" d="M537.8,217.7c0,3.1-1.1,4.8-3.2,4.8c-1.8,0-3-1.7-3-4.7c0-3.1,1.3-4.7,3.2-4.7
		C536.7,213.1,537.8,214.8,537.8,217.7z M532.9,217.8c0,2.4,0.7,3.7,1.8,3.7c1.3,0,1.9-1.5,1.9-3.8c0-2.2-0.6-3.7-1.8-3.7
		C533.7,214,532.9,215.3,532.9,217.8z"/>
	<path class="st8" d="M545,217.7c0,3.1-1.1,4.8-3.2,4.8c-1.8,0-3-1.7-3-4.7c0-3.1,1.3-4.7,3.2-4.7C543.9,213.1,545,214.8,545,217.7z
		 M540.1,217.8c0,2.4,0.7,3.7,1.8,3.7c1.3,0,1.9-1.5,1.9-3.8c0-2.2-0.6-3.7-1.8-3.7C540.8,214,540.1,215.3,540.1,217.8z"/>
	<path class="st8" d="M545.7,224c0.3-0.8,0.7-2.3,0.8-3.3l1.4-0.1c-0.3,1.2-0.9,2.7-1.3,3.4L545.7,224z"/>
	<path class="st8" d="M555.1,217.7c0,3.1-1.1,4.8-3.2,4.8c-1.8,0-3-1.7-3-4.7c0-3.1,1.3-4.7,3.2-4.7
		C554,213.1,555.1,214.8,555.1,217.7z M550.1,217.8c0,2.4,0.7,3.7,1.8,3.7c1.3,0,1.9-1.5,1.9-3.8c0-2.2-0.6-3.7-1.8-3.7
		C550.9,214,550.1,215.3,550.1,217.8z"/>
	<path class="st8" d="M562.3,217.7c0,3.1-1.1,4.8-3.2,4.8c-1.8,0-3-1.7-3-4.7c0-3.1,1.3-4.7,3.2-4.7
		C561.2,213.1,562.3,214.8,562.3,217.7z M557.3,217.8c0,2.4,0.7,3.7,1.8,3.7c1.3,0,1.9-1.5,1.9-3.8c0-2.2-0.6-3.7-1.8-3.7
		C558.1,214,557.3,215.3,557.3,217.8z"/>
	<path class="st8" d="M569.4,217.7c0,3.1-1.1,4.8-3.2,4.8c-1.8,0-3-1.7-3-4.7c0-3.1,1.3-4.7,3.2-4.7
		C568.3,213.1,569.4,214.8,569.4,217.7z M564.5,217.8c0,2.4,0.7,3.7,1.8,3.7c1.3,0,1.9-1.5,1.9-3.8c0-2.2-0.6-3.7-1.8-3.7
		C565.3,214,564.5,215.3,564.5,217.8z"/>
	<path class="st8" d="M514.4,240c0-1.1,0.7-2,1.8-2.4l0,0c-1-0.5-1.4-1.3-1.4-2c0-1.4,1.2-2.4,2.8-2.4c1.8,0,2.6,1.1,2.6,2.2
		c0,0.8-0.4,1.6-1.5,2.1v0c1.1,0.4,1.8,1.2,1.8,2.4c0,1.6-1.4,2.6-3.1,2.6C515.5,242.5,514.4,241.3,514.4,240z M519.3,240
		c0-1.1-0.8-1.6-2-2c-1.1,0.3-1.6,1-1.6,1.9c0,0.9,0.7,1.7,1.8,1.7C518.6,241.6,519.3,240.9,519.3,240z M515.9,235.4
		c0,0.9,0.7,1.4,1.7,1.7c0.8-0.3,1.4-0.8,1.4-1.7c0-0.7-0.4-1.5-1.5-1.5C516.5,233.9,515.9,234.6,515.9,235.4z"/>
	<path class="st8" d="M521.3,244c0.3-0.8,0.7-2.3,0.8-3.3l1.4-0.1c-0.3,1.2-0.9,2.7-1.3,3.4L521.3,244z"/>
	<path class="st8" d="M530.6,237.7c0,3.1-1.1,4.8-3.2,4.8c-1.8,0-3-1.7-3-4.7c0-3.1,1.3-4.7,3.2-4.7
		C529.5,233.1,530.6,234.8,530.6,237.7z M525.7,237.8c0,2.4,0.7,3.7,1.8,3.7c1.3,0,1.9-1.5,1.9-3.8c0-2.2-0.6-3.7-1.8-3.7
		C526.5,234,525.7,235.3,525.7,237.8z"/>
	<path class="st8" d="M537.8,237.7c0,3.1-1.1,4.8-3.2,4.8c-1.8,0-3-1.7-3-4.7c0-3.1,1.3-4.7,3.2-4.7
		C536.7,233.1,537.8,234.8,537.8,237.7z M532.9,237.8c0,2.4,0.7,3.7,1.8,3.7c1.3,0,1.9-1.5,1.9-3.8c0-2.2-0.6-3.7-1.8-3.7
		C533.7,234,532.9,235.3,532.9,237.8z"/>
	<path class="st8" d="M545,237.7c0,3.1-1.1,4.8-3.2,4.8c-1.8,0-3-1.7-3-4.7c0-3.1,1.3-4.7,3.2-4.7C543.9,233.1,545,234.8,545,237.7z
		 M540.1,237.8c0,2.4,0.7,3.7,1.8,3.7c1.3,0,1.9-1.5,1.9-3.8c0-2.2-0.6-3.7-1.8-3.7C540.8,234,540.1,235.3,540.1,237.8z"/>
	<path class="st8" d="M545.7,244c0.3-0.8,0.7-2.3,0.8-3.3l1.4-0.1c-0.3,1.2-0.9,2.7-1.3,3.4L545.7,244z"/>
	<path class="st8" d="M555.1,237.7c0,3.1-1.1,4.8-3.2,4.8c-1.8,0-3-1.7-3-4.7c0-3.1,1.3-4.7,3.2-4.7
		C554,233.1,555.1,234.8,555.1,237.7z M550.1,237.8c0,2.4,0.7,3.7,1.8,3.7c1.3,0,1.9-1.5,1.9-3.8c0-2.2-0.6-3.7-1.8-3.7
		C550.9,234,550.1,235.3,550.1,237.8z"/>
	<path class="st8" d="M562.3,237.7c0,3.1-1.1,4.8-3.2,4.8c-1.8,0-3-1.7-3-4.7c0-3.1,1.3-4.7,3.2-4.7
		C561.2,233.1,562.3,234.8,562.3,237.7z M557.3,237.8c0,2.4,0.7,3.7,1.8,3.7c1.3,0,1.9-1.5,1.9-3.8c0-2.2-0.6-3.7-1.8-3.7
		C558.1,234,557.3,235.3,557.3,237.8z"/>
	<path class="st8" d="M569.4,237.7c0,3.1-1.1,4.8-3.2,4.8c-1.8,0-3-1.7-3-4.7c0-3.1,1.3-4.7,3.2-4.7
		C568.3,233.1,569.4,234.8,569.4,237.7z M564.5,237.8c0,2.4,0.7,3.7,1.8,3.7c1.3,0,1.9-1.5,1.9-3.8c0-2.2-0.6-3.7-1.8-3.7
		C565.3,234,564.5,235.3,564.5,237.8z"/>
	<path class="st8" d="M519.7,254.1c-0.3,0-0.6,0-0.9,0.1c-1.9,0.3-3,1.7-3.2,3.2h0c0.4-0.6,1.2-1.1,2.2-1.1c1.6,0,2.7,1.2,2.7,2.9
		c0,1.7-1.1,3.2-3,3.2c-1.9,0-3.2-1.5-3.2-3.9c0-1.8,0.6-3.2,1.5-4.1c0.8-0.7,1.8-1.2,2.9-1.3c0.4-0.1,0.7-0.1,0.9-0.1V254.1z
		 M519.3,259.3c0-1.3-0.7-2.1-1.9-2.1c-0.7,0-1.4,0.5-1.8,1.1c-0.1,0.1-0.1,0.3-0.1,0.5c0,1.5,0.7,2.6,2,2.6
		C518.6,261.5,519.3,260.6,519.3,259.3z"/>
	<path class="st8" d="M521.3,264c0.3-0.8,0.7-2.3,0.8-3.3l1.4-0.1c-0.3,1.2-0.9,2.7-1.3,3.4L521.3,264z"/>
	<path class="st8" d="M530.6,257.7c0,3.1-1.1,4.8-3.2,4.8c-1.8,0-3-1.7-3-4.7c0-3.1,1.3-4.7,3.2-4.7
		C529.5,253.1,530.6,254.8,530.6,257.7z M525.7,257.8c0,2.4,0.7,3.7,1.8,3.7c1.3,0,1.9-1.5,1.9-3.8c0-2.2-0.6-3.7-1.8-3.7
		C526.5,254,525.7,255.3,525.7,257.8z"/>
	<path class="st8" d="M537.8,257.7c0,3.1-1.1,4.8-3.2,4.8c-1.8,0-3-1.7-3-4.7c0-3.1,1.3-4.7,3.2-4.7
		C536.7,253.1,537.8,254.8,537.8,257.7z M532.9,257.8c0,2.4,0.7,3.7,1.8,3.7c1.3,0,1.9-1.5,1.9-3.8c0-2.2-0.6-3.7-1.8-3.7
		C533.7,254,532.9,255.3,532.9,257.8z"/>
	<path class="st8" d="M545,257.7c0,3.1-1.1,4.8-3.2,4.8c-1.8,0-3-1.7-3-4.7c0-3.1,1.3-4.7,3.2-4.7C543.9,253.1,545,254.8,545,257.7z
		 M540.1,257.8c0,2.4,0.7,3.7,1.8,3.7c1.3,0,1.9-1.5,1.9-3.8c0-2.2-0.6-3.7-1.8-3.7C540.8,254,540.1,255.3,540.1,257.8z"/>
	<path class="st8" d="M545.7,264c0.3-0.8,0.7-2.3,0.8-3.3l1.4-0.1c-0.3,1.2-0.9,2.7-1.3,3.4L545.7,264z"/>
	<path class="st8" d="M555.1,257.7c0,3.1-1.1,4.8-3.2,4.8c-1.8,0-3-1.7-3-4.7c0-3.1,1.3-4.7,3.2-4.7
		C554,253.1,555.1,254.8,555.1,257.7z M550.1,257.8c0,2.4,0.7,3.7,1.8,3.7c1.3,0,1.9-1.5,1.9-3.8c0-2.2-0.6-3.7-1.8-3.7
		C550.9,254,550.1,255.3,550.1,257.8z"/>
	<path class="st8" d="M562.3,257.7c0,3.1-1.1,4.8-3.2,4.8c-1.8,0-3-1.7-3-4.7c0-3.1,1.3-4.7,3.2-4.7
		C561.2,253.1,562.3,254.8,562.3,257.7z M557.3,257.8c0,2.4,0.7,3.7,1.8,3.7c1.3,0,1.9-1.5,1.9-3.8c0-2.2-0.6-3.7-1.8-3.7
		C558.1,254,557.3,255.3,557.3,257.8z"/>
	<path class="st8" d="M569.4,257.7c0,3.1-1.1,4.8-3.2,4.8c-1.8,0-3-1.7-3-4.7c0-3.1,1.3-4.7,3.2-4.7
		C568.3,253.1,569.4,254.8,569.4,257.7z M564.5,257.8c0,2.4,0.7,3.7,1.8,3.7c1.3,0,1.9-1.5,1.9-3.8c0-2.2-0.6-3.7-1.8-3.7
		C565.3,254,564.5,255.3,564.5,257.8z"/>
	<path class="st8" d="M518.3,282.3v-2.5h-4.2V279l4.1-5.8h1.3v5.7h1.3v1h-1.3v2.5H518.3z M518.3,278.9v-3c0-0.5,0-1,0-1.4h0
		c-0.3,0.5-0.5,0.9-0.8,1.3l-2.2,3.1v0H518.3z"/>
	<path class="st8" d="M521.3,284c0.3-0.8,0.7-2.3,0.8-3.3l1.4-0.1c-0.3,1.2-0.9,2.7-1.3,3.4L521.3,284z"/>
	<path class="st8" d="M530.6,277.7c0,3.1-1.1,4.8-3.2,4.8c-1.8,0-3-1.7-3-4.7c0-3.1,1.3-4.7,3.2-4.7
		C529.5,273.1,530.6,274.8,530.6,277.7z M525.7,277.8c0,2.4,0.7,3.7,1.8,3.7c1.3,0,1.9-1.5,1.9-3.8c0-2.2-0.6-3.7-1.8-3.7
		C526.5,274,525.7,275.3,525.7,277.8z"/>
	<path class="st8" d="M537.8,277.7c0,3.1-1.1,4.8-3.2,4.8c-1.8,0-3-1.7-3-4.7c0-3.1,1.3-4.7,3.2-4.7
		C536.7,273.1,537.8,274.8,537.8,277.7z M532.9,277.8c0,2.4,0.7,3.7,1.8,3.7c1.3,0,1.9-1.5,1.9-3.8c0-2.2-0.6-3.7-1.8-3.7
		C533.7,274,532.9,275.3,532.9,277.8z"/>
	<path class="st8" d="M545,277.7c0,3.1-1.1,4.8-3.2,4.8c-1.8,0-3-1.7-3-4.7c0-3.1,1.3-4.7,3.2-4.7C543.9,273.1,545,274.8,545,277.7z
		 M540.1,277.8c0,2.4,0.7,3.7,1.8,3.7c1.3,0,1.9-1.5,1.9-3.8c0-2.2-0.6-3.7-1.8-3.7C540.8,274,540.1,275.3,540.1,277.8z"/>
	<path class="st8" d="M545.7,284c0.3-0.8,0.7-2.3,0.8-3.3l1.4-0.1c-0.3,1.2-0.9,2.7-1.3,3.4L545.7,284z"/>
	<path class="st8" d="M555.1,277.7c0,3.1-1.1,4.8-3.2,4.8c-1.8,0-3-1.7-3-4.7c0-3.1,1.3-4.7,3.2-4.7
		C554,273.1,555.1,274.8,555.1,277.7z M550.1,277.8c0,2.4,0.7,3.7,1.8,3.7c1.3,0,1.9-1.5,1.9-3.8c0-2.2-0.6-3.7-1.8-3.7
		C550.9,274,550.1,275.3,550.1,277.8z"/>
	<path class="st8" d="M562.3,277.7c0,3.1-1.1,4.8-3.2,4.8c-1.8,0-3-1.7-3-4.7c0-3.1,1.3-4.7,3.2-4.7
		C561.2,273.1,562.3,274.8,562.3,277.7z M557.3,277.8c0,2.4,0.7,3.7,1.8,3.7c1.3,0,1.9-1.5,1.9-3.8c0-2.2-0.6-3.7-1.8-3.7
		C558.1,274,557.3,275.3,557.3,277.8z"/>
	<path class="st8" d="M569.4,277.7c0,3.1-1.1,4.8-3.2,4.8c-1.8,0-3-1.7-3-4.7c0-3.1,1.3-4.7,3.2-4.7
		C568.3,273.1,569.4,274.8,569.4,277.7z M564.5,277.8c0,2.4,0.7,3.7,1.8,3.7c1.3,0,1.9-1.5,1.9-3.8c0-2.2-0.6-3.7-1.8-3.7
		C565.3,274,564.5,275.3,564.5,277.8z"/>
	<path class="st8" d="M514.5,302.3v-0.8l1-0.9c2.3-2.2,3.4-3.4,3.4-4.8c0-0.9-0.4-1.8-1.8-1.8c-0.8,0-1.5,0.4-1.9,0.8l-0.4-0.9
		c0.6-0.5,1.5-0.9,2.6-0.9c2,0,2.8,1.3,2.8,2.6c0,1.7-1.2,3-3.1,4.9l-0.7,0.7v0h4.1v1H514.5z"/>
	<path class="st8" d="M521.3,304c0.3-0.8,0.7-2.3,0.8-3.3l1.4-0.1c-0.3,1.2-0.9,2.7-1.3,3.4L521.3,304z"/>
	<path class="st8" d="M530.6,297.7c0,3.1-1.1,4.8-3.2,4.8c-1.8,0-3-1.7-3-4.7c0-3.1,1.3-4.7,3.2-4.7
		C529.5,293.1,530.6,294.8,530.6,297.7z M525.7,297.8c0,2.4,0.7,3.7,1.8,3.7c1.3,0,1.9-1.5,1.9-3.8c0-2.2-0.6-3.7-1.8-3.7
		C526.5,294,525.7,295.3,525.7,297.8z"/>
	<path class="st8" d="M537.8,297.7c0,3.1-1.1,4.8-3.2,4.8c-1.8,0-3-1.7-3-4.7c0-3.1,1.3-4.7,3.2-4.7
		C536.7,293.1,537.8,294.8,537.8,297.7z M532.9,297.8c0,2.4,0.7,3.7,1.8,3.7c1.3,0,1.9-1.5,1.9-3.8c0-2.2-0.6-3.7-1.8-3.7
		C533.7,294,532.9,295.3,532.9,297.8z"/>
	<path class="st8" d="M545,297.7c0,3.1-1.1,4.8-3.2,4.8c-1.8,0-3-1.7-3-4.7c0-3.1,1.3-4.7,3.2-4.7C543.9,293.1,545,294.8,545,297.7z
		 M540.1,297.8c0,2.4,0.7,3.7,1.8,3.7c1.3,0,1.9-1.5,1.9-3.8c0-2.2-0.6-3.7-1.8-3.7C540.8,294,540.1,295.3,540.1,297.8z"/>
	<path class="st8" d="M545.7,304c0.3-0.8,0.7-2.3,0.8-3.3l1.4-0.1c-0.3,1.2-0.9,2.7-1.3,3.4L545.7,304z"/>
	<path class="st8" d="M555.1,297.7c0,3.1-1.1,4.8-3.2,4.8c-1.8,0-3-1.7-3-4.7c0-3.1,1.3-4.7,3.2-4.7
		C554,293.1,555.1,294.8,555.1,297.7z M550.1,297.8c0,2.4,0.7,3.7,1.8,3.7c1.3,0,1.9-1.5,1.9-3.8c0-2.2-0.6-3.7-1.8-3.7
		C550.9,294,550.1,295.3,550.1,297.8z"/>
	<path class="st8" d="M562.3,297.7c0,3.1-1.1,4.8-3.2,4.8c-1.8,0-3-1.7-3-4.7c0-3.1,1.3-4.7,3.2-4.7
		C561.2,293.1,562.3,294.8,562.3,297.7z M557.3,297.8c0,2.4,0.7,3.7,1.8,3.7c1.3,0,1.9-1.5,1.9-3.8c0-2.2-0.6-3.7-1.8-3.7
		C558.1,294,557.3,295.3,557.3,297.8z"/>
	<path class="st8" d="M569.4,297.7c0,3.1-1.1,4.8-3.2,4.8c-1.8,0-3-1.7-3-4.7c0-3.1,1.3-4.7,3.2-4.7
		C568.3,293.1,569.4,294.8,569.4,297.7z M564.5,297.8c0,2.4,0.7,3.7,1.8,3.7c1.3,0,1.9-1.5,1.9-3.8c0-2.2-0.6-3.7-1.8-3.7
		C565.3,294,564.5,295.3,564.5,297.8z"/>
	<path class="st8" d="M530.5,313.2v0.8l-4,8.3h-1.3l4-8.1v0h-4.5v-1H530.5z"/>
	<path class="st8" d="M537.2,314.3h-3.5l-0.3,2.3c0.2,0,0.4-0.1,0.7-0.1c0.7,0,1.4,0.2,2,0.5c0.7,0.4,1.3,1.2,1.3,2.3
		c0,1.8-1.4,3.1-3.4,3.1c-1,0-1.8-0.3-2.3-0.6l0.3-0.9c0.4,0.2,1.1,0.5,1.9,0.5c1.2,0,2.2-0.8,2.2-2c0-1.2-0.8-2-2.6-2
		c-0.5,0-0.9,0.1-1.3,0.1l0.6-4.4h4.4V314.3z"/>
	<path class="st8" d="M545,317.7c0,3.1-1.1,4.8-3.2,4.8c-1.8,0-3-1.7-3-4.7c0-3.1,1.3-4.7,3.2-4.7C543.9,313.1,545,314.8,545,317.7z
		 M540.1,317.8c0,2.4,0.7,3.7,1.8,3.7c1.3,0,1.9-1.5,1.9-3.8c0-2.2-0.6-3.7-1.8-3.7C540.8,314,540.1,315.3,540.1,317.8z"/>
	<path class="st8" d="M545.7,324c0.3-0.8,0.7-2.3,0.8-3.3l1.4-0.1c-0.3,1.2-0.9,2.7-1.3,3.4L545.7,324z"/>
	<path class="st8" d="M555.1,317.7c0,3.1-1.1,4.8-3.2,4.8c-1.8,0-3-1.7-3-4.7c0-3.1,1.3-4.7,3.2-4.7
		C554,313.1,555.1,314.8,555.1,317.7z M550.1,317.8c0,2.4,0.7,3.7,1.8,3.7c1.3,0,1.9-1.5,1.9-3.8c0-2.2-0.6-3.7-1.8-3.7
		C550.9,314,550.1,315.3,550.1,317.8z"/>
	<path class="st8" d="M562.3,317.7c0,3.1-1.1,4.8-3.2,4.8c-1.8,0-3-1.7-3-4.7c0-3.1,1.3-4.7,3.2-4.7
		C561.2,313.1,562.3,314.8,562.3,317.7z M557.3,317.8c0,2.4,0.7,3.7,1.8,3.7c1.3,0,1.9-1.5,1.9-3.8c0-2.2-0.6-3.7-1.8-3.7
		C558.1,314,557.3,315.3,557.3,317.8z"/>
	<path class="st8" d="M569.4,317.7c0,3.1-1.1,4.8-3.2,4.8c-1.8,0-3-1.7-3-4.7c0-3.1,1.3-4.7,3.2-4.7
		C568.3,313.1,569.4,314.8,569.4,317.7z M564.5,317.8c0,2.4,0.7,3.7,1.8,3.7c1.3,0,1.9-1.5,1.9-3.8c0-2.2-0.6-3.7-1.8-3.7
		C565.3,314,564.5,315.3,564.5,317.8z"/>
	<path class="st8" d="M530,334.3h-3.5l-0.3,2.3c0.2,0,0.4-0.1,0.7-0.1c0.7,0,1.4,0.2,2,0.5c0.7,0.4,1.3,1.2,1.3,2.3
		c0,1.8-1.4,3.1-3.4,3.1c-1,0-1.8-0.3-2.3-0.6l0.3-0.9c0.4,0.2,1.1,0.5,1.9,0.5c1.2,0,2.2-0.8,2.2-2c0-1.2-0.8-2-2.6-2
		c-0.5,0-0.9,0.1-1.3,0.1l0.6-4.4h4.4V334.3z"/>
	<path class="st8" d="M537.8,337.7c0,3.1-1.1,4.8-3.2,4.8c-1.8,0-3-1.7-3-4.7c0-3.1,1.3-4.7,3.2-4.7
		C536.7,333.1,537.8,334.8,537.8,337.7z M532.9,337.8c0,2.4,0.7,3.7,1.8,3.7c1.3,0,1.9-1.5,1.9-3.8c0-2.2-0.6-3.7-1.8-3.7
		C533.7,334,532.9,335.3,532.9,337.8z"/>
	<path class="st8" d="M545,337.7c0,3.1-1.1,4.8-3.2,4.8c-1.8,0-3-1.7-3-4.7c0-3.1,1.3-4.7,3.2-4.7C543.9,333.1,545,334.8,545,337.7z
		 M540.1,337.8c0,2.4,0.7,3.7,1.8,3.7c1.3,0,1.9-1.5,1.9-3.8c0-2.2-0.6-3.7-1.8-3.7C540.8,334,540.1,335.3,540.1,337.8z"/>
	<path class="st8" d="M545.7,344c0.3-0.8,0.7-2.3,0.8-3.3l1.4-0.1c-0.3,1.2-0.9,2.7-1.3,3.4L545.7,344z"/>
	<path class="st8" d="M555.1,337.7c0,3.1-1.1,4.8-3.2,4.8c-1.8,0-3-1.7-3-4.7c0-3.1,1.3-4.7,3.2-4.7
		C554,333.1,555.1,334.8,555.1,337.7z M550.1,337.8c0,2.4,0.7,3.7,1.8,3.7c1.3,0,1.9-1.5,1.9-3.8c0-2.2-0.6-3.7-1.8-3.7
		C550.9,334,550.1,335.3,550.1,337.8z"/>
	<path class="st8" d="M562.3,337.7c0,3.1-1.1,4.8-3.2,4.8c-1.8,0-3-1.7-3-4.7c0-3.1,1.3-4.7,3.2-4.7
		C561.2,333.1,562.3,334.8,562.3,337.7z M557.3,337.8c0,2.4,0.7,3.7,1.8,3.7c1.3,0,1.9-1.5,1.9-3.8c0-2.2-0.6-3.7-1.8-3.7
		C558.1,334,557.3,335.3,557.3,337.8z"/>
	<path class="st8" d="M569.4,337.7c0,3.1-1.1,4.8-3.2,4.8c-1.8,0-3-1.7-3-4.7c0-3.1,1.3-4.7,3.2-4.7
		C568.3,333.1,569.4,334.8,569.4,337.7z M564.5,337.8c0,2.4,0.7,3.7,1.8,3.7c1.3,0,1.9-1.5,1.9-3.8c0-2.2-0.6-3.7-1.8-3.7
		C565.3,334,564.5,335.3,564.5,337.8z"/>
	<path class="st8" d="M524.6,362.3v-0.8l1-0.9c2.3-2.2,3.4-3.4,3.4-4.8c0-0.9-0.4-1.8-1.8-1.8c-0.8,0-1.5,0.4-1.9,0.8l-0.4-0.9
		c0.6-0.5,1.5-0.9,2.6-0.9c2,0,2.8,1.3,2.8,2.6c0,1.7-1.2,3-3.1,4.9l-0.7,0.7v0h4.1v1H524.6z"/>
	<path class="st8" d="M537.2,354.3h-3.5l-0.3,2.3c0.2,0,0.4-0.1,0.7-0.1c0.7,0,1.4,0.2,2,0.5c0.7,0.4,1.3,1.2,1.3,2.3
		c0,1.8-1.4,3.1-3.4,3.1c-1,0-1.8-0.3-2.3-0.6l0.3-0.9c0.4,0.2,1.1,0.5,1.9,0.5c1.2,0,2.2-0.8,2.2-2c0-1.2-0.8-2-2.6-2
		c-0.5,0-0.9,0.1-1.3,0.1l0.6-4.4h4.4V354.3z"/>
	<path class="st8" d="M545,357.7c0,3.1-1.1,4.8-3.2,4.8c-1.8,0-3-1.7-3-4.7c0-3.1,1.3-4.7,3.2-4.7C543.9,353.1,545,354.8,545,357.7z
		 M540.1,357.8c0,2.4,0.7,3.7,1.8,3.7c1.3,0,1.9-1.5,1.9-3.8c0-2.2-0.6-3.7-1.8-3.7C540.8,354,540.1,355.3,540.1,357.8z"/>
	<path class="st8" d="M545.7,364c0.3-0.8,0.7-2.3,0.8-3.3l1.4-0.1c-0.3,1.2-0.9,2.7-1.3,3.4L545.7,364z"/>
	<path class="st8" d="M555.1,357.7c0,3.1-1.1,4.8-3.2,4.8c-1.8,0-3-1.7-3-4.7c0-3.1,1.3-4.7,3.2-4.7
		C554,353.1,555.1,354.8,555.1,357.7z M550.1,357.8c0,2.4,0.7,3.7,1.8,3.7c1.3,0,1.9-1.5,1.9-3.8c0-2.2-0.6-3.7-1.8-3.7
		C550.9,354,550.1,355.3,550.1,357.8z"/>
	<path class="st8" d="M562.3,357.7c0,3.1-1.1,4.8-3.2,4.8c-1.8,0-3-1.7-3-4.7c0-3.1,1.3-4.7,3.2-4.7
		C561.2,353.1,562.3,354.8,562.3,357.7z M557.3,357.8c0,2.4,0.7,3.7,1.8,3.7c1.3,0,1.9-1.5,1.9-3.8c0-2.2-0.6-3.7-1.8-3.7
		C558.1,354,557.3,355.3,557.3,357.8z"/>
	<path class="st8" d="M569.4,357.7c0,3.1-1.1,4.8-3.2,4.8c-1.8,0-3-1.7-3-4.7c0-3.1,1.3-4.7,3.2-4.7
		C568.3,353.1,569.4,354.8,569.4,357.7z M564.5,357.8c0,2.4,0.7,3.7,1.8,3.7c1.3,0,1.9-1.5,1.9-3.8c0-2.2-0.6-3.7-1.8-3.7
		C565.3,354,564.5,355.3,564.5,357.8z"/>
	<path class="st8" d="M531.7,380c0-1.1,0.7-2,1.8-2.4l0,0c-1-0.5-1.4-1.3-1.4-2c0-1.4,1.2-2.4,2.8-2.4c1.8,0,2.6,1.1,2.6,2.2
		c0,0.8-0.4,1.6-1.5,2.1v0c1.1,0.4,1.8,1.2,1.8,2.4c0,1.6-1.4,2.6-3.1,2.6C532.8,382.5,531.7,381.3,531.7,380z M536.6,380
		c0-1.1-0.8-1.6-2-2c-1.1,0.3-1.6,1-1.6,1.9c0,0.9,0.7,1.7,1.8,1.7C535.8,381.6,536.6,380.9,536.6,380z M533.2,375.4
		c0,0.9,0.7,1.4,1.7,1.7c0.8-0.3,1.4-0.8,1.4-1.7c0-0.7-0.4-1.5-1.5-1.5C533.7,373.9,533.2,374.6,533.2,375.4z"/>
	<path class="st8" d="M545,377.7c0,3.1-1.1,4.8-3.2,4.8c-1.8,0-3-1.7-3-4.7c0-3.1,1.3-4.7,3.2-4.7C543.9,373.1,545,374.8,545,377.7z
		 M540.1,377.8c0,2.4,0.7,3.7,1.8,3.7c1.3,0,1.9-1.5,1.9-3.8c0-2.2-0.6-3.7-1.8-3.7C540.8,374,540.1,375.3,540.1,377.8z"/>
	<path class="st8" d="M545.7,384c0.3-0.8,0.7-2.3,0.8-3.3l1.4-0.1c-0.3,1.2-0.9,2.7-1.3,3.4L545.7,384z"/>
	<path class="st8" d="M555.1,377.7c0,3.1-1.1,4.8-3.2,4.8c-1.8,0-3-1.7-3-4.7c0-3.1,1.3-4.7,3.2-4.7
		C554,373.1,555.1,374.8,555.1,377.7z M550.1,377.8c0,2.4,0.7,3.7,1.8,3.7c1.3,0,1.9-1.5,1.9-3.8c0-2.2-0.6-3.7-1.8-3.7
		C550.9,374,550.1,375.3,550.1,377.8z"/>
	<path class="st8" d="M562.3,377.7c0,3.1-1.1,4.8-3.2,4.8c-1.8,0-3-1.7-3-4.7c0-3.1,1.3-4.7,3.2-4.7
		C561.2,373.1,562.3,374.8,562.3,377.7z M557.3,377.8c0,2.4,0.7,3.7,1.8,3.7c1.3,0,1.9-1.5,1.9-3.8c0-2.2-0.6-3.7-1.8-3.7
		C558.1,374,557.3,375.3,557.3,377.8z"/>
	<path class="st8" d="M569.4,377.7c0,3.1-1.1,4.8-3.2,4.8c-1.8,0-3-1.7-3-4.7c0-3.1,1.3-4.7,3.2-4.7
		C568.3,373.1,569.4,374.8,569.4,377.7z M564.5,377.8c0,2.4,0.7,3.7,1.8,3.7c1.3,0,1.9-1.5,1.9-3.8c0-2.2-0.6-3.7-1.8-3.7
		C565.3,374,564.5,375.3,564.5,377.8z"/>
	<path class="st8" d="M537,394.1c-0.3,0-0.6,0-0.9,0.1c-1.9,0.3-3,1.7-3.2,3.2h0c0.4-0.6,1.2-1.1,2.2-1.1c1.6,0,2.7,1.2,2.7,2.9
		c0,1.7-1.1,3.2-3,3.2c-1.9,0-3.2-1.5-3.2-3.9c0-1.8,0.6-3.2,1.5-4.1c0.8-0.7,1.8-1.2,2.9-1.3c0.4-0.1,0.7-0.1,0.9-0.1V394.1z
		 M536.6,399.3c0-1.3-0.7-2.1-1.9-2.1c-0.7,0-1.4,0.5-1.8,1.1c-0.1,0.1-0.1,0.3-0.1,0.5c0,1.5,0.7,2.6,2,2.6
		C535.9,401.5,536.6,400.6,536.6,399.3z"/>
	<path class="st8" d="M545,397.7c0,3.1-1.1,4.8-3.2,4.8c-1.8,0-3-1.7-3-4.7c0-3.1,1.3-4.7,3.2-4.7C543.9,393.1,545,394.8,545,397.7z
		 M540.1,397.8c0,2.4,0.7,3.7,1.8,3.7c1.3,0,1.9-1.5,1.9-3.8c0-2.2-0.6-3.7-1.8-3.7C540.8,394,540.1,395.3,540.1,397.8z"/>
	<path class="st8" d="M545.7,404c0.3-0.8,0.7-2.3,0.8-3.3l1.4-0.1c-0.3,1.2-0.9,2.7-1.3,3.4L545.7,404z"/>
	<path class="st8" d="M555.1,397.7c0,3.1-1.1,4.8-3.2,4.8c-1.8,0-3-1.7-3-4.7c0-3.1,1.3-4.7,3.2-4.7
		C554,393.1,555.1,394.8,555.1,397.7z M550.1,397.8c0,2.4,0.7,3.7,1.8,3.7c1.3,0,1.9-1.5,1.9-3.8c0-2.2-0.6-3.7-1.8-3.7
		C550.9,394,550.1,395.3,550.1,397.8z"/>
	<path class="st8" d="M562.3,397.7c0,3.1-1.1,4.8-3.2,4.8c-1.8,0-3-1.7-3-4.7c0-3.1,1.3-4.7,3.2-4.7
		C561.2,393.1,562.3,394.8,562.3,397.7z M557.3,397.8c0,2.4,0.7,3.7,1.8,3.7c1.3,0,1.9-1.5,1.9-3.8c0-2.2-0.6-3.7-1.8-3.7
		C558.1,394,557.3,395.3,557.3,397.8z"/>
	<path class="st8" d="M569.4,397.7c0,3.1-1.1,4.8-3.2,4.8c-1.8,0-3-1.7-3-4.7c0-3.1,1.3-4.7,3.2-4.7
		C568.3,393.1,569.4,394.8,569.4,397.7z M564.5,397.8c0,2.4,0.7,3.7,1.8,3.7c1.3,0,1.9-1.5,1.9-3.8c0-2.2-0.6-3.7-1.8-3.7
		C565.3,394,564.5,395.3,564.5,397.8z"/>
	<path class="st8" d="M535.6,422.3v-2.5h-4.2V419l4.1-5.8h1.3v5.7h1.3v1h-1.3v2.5H535.6z M535.6,418.9v-3c0-0.5,0-1,0-1.4h0
		c-0.3,0.5-0.5,0.9-0.8,1.3l-2.2,3.1v0H535.6z"/>
	<path class="st8" d="M545,417.7c0,3.1-1.1,4.8-3.2,4.8c-1.8,0-3-1.7-3-4.7c0-3.1,1.3-4.7,3.2-4.7C543.9,413.1,545,414.8,545,417.7z
		 M540.1,417.8c0,2.4,0.7,3.7,1.8,3.7c1.3,0,1.9-1.5,1.9-3.8c0-2.2-0.6-3.7-1.8-3.7C540.8,414,540.1,415.3,540.1,417.8z"/>
	<path class="st8" d="M545.7,424c0.3-0.8,0.7-2.3,0.8-3.3l1.4-0.1c-0.3,1.2-0.9,2.7-1.3,3.4L545.7,424z"/>
	<path class="st8" d="M555.1,417.7c0,3.1-1.1,4.8-3.2,4.8c-1.8,0-3-1.7-3-4.7c0-3.1,1.3-4.7,3.2-4.7
		C554,413.1,555.1,414.8,555.1,417.7z M550.1,417.8c0,2.4,0.7,3.7,1.8,3.7c1.3,0,1.9-1.5,1.9-3.8c0-2.2-0.6-3.7-1.8-3.7
		C550.9,414,550.1,415.3,550.1,417.8z"/>
	<path class="st8" d="M562.3,417.7c0,3.1-1.1,4.8-3.2,4.8c-1.8,0-3-1.7-3-4.7c0-3.1,1.3-4.7,3.2-4.7
		C561.2,413.1,562.3,414.8,562.3,417.7z M557.3,417.8c0,2.4,0.7,3.7,1.8,3.7c1.3,0,1.9-1.5,1.9-3.8c0-2.2-0.6-3.7-1.8-3.7
		C558.1,414,557.3,415.3,557.3,417.8z"/>
	<path class="st8" d="M569.4,417.7c0,3.1-1.1,4.8-3.2,4.8c-1.8,0-3-1.7-3-4.7c0-3.1,1.3-4.7,3.2-4.7
		C568.3,413.1,569.4,414.8,569.4,417.7z M564.5,417.8c0,2.4,0.7,3.7,1.8,3.7c1.3,0,1.9-1.5,1.9-3.8c0-2.2-0.6-3.7-1.8-3.7
		C565.3,414,564.5,415.3,564.5,417.8z"/>
	<path class="st8" d="M531.8,442.3v-0.8l1-0.9c2.3-2.2,3.4-3.4,3.4-4.8c0-0.9-0.4-1.8-1.8-1.8c-0.8,0-1.5,0.4-1.9,0.8L532,434
		c0.6-0.5,1.5-0.9,2.6-0.9c2,0,2.8,1.3,2.8,2.6c0,1.7-1.2,3-3.1,4.9l-0.7,0.7v0h4.1v1H531.8z"/>
	<path class="st8" d="M545,437.7c0,3.1-1.1,4.8-3.2,4.8c-1.8,0-3-1.7-3-4.7c0-3.1,1.3-4.7,3.2-4.7C543.9,433.1,545,434.8,545,437.7z
		 M540.1,437.8c0,2.4,0.7,3.7,1.8,3.7c1.3,0,1.9-1.5,1.9-3.8c0-2.2-0.6-3.7-1.8-3.7C540.8,434,540.1,435.3,540.1,437.8z"/>
	<path class="st8" d="M545.7,444c0.3-0.8,0.7-2.3,0.8-3.3l1.4-0.1c-0.3,1.2-0.9,2.7-1.3,3.4L545.7,444z"/>
	<path class="st8" d="M555.1,437.7c0,3.1-1.1,4.8-3.2,4.8c-1.8,0-3-1.7-3-4.7c0-3.1,1.3-4.7,3.2-4.7
		C554,433.1,555.1,434.8,555.1,437.7z M550.1,437.8c0,2.4,0.7,3.7,1.8,3.7c1.3,0,1.9-1.5,1.9-3.8c0-2.2-0.6-3.7-1.8-3.7
		C550.9,434,550.1,435.3,550.1,437.8z"/>
	<path class="st8" d="M562.3,437.7c0,3.1-1.1,4.8-3.2,4.8c-1.8,0-3-1.7-3-4.7c0-3.1,1.3-4.7,3.2-4.7
		C561.2,433.1,562.3,434.8,562.3,437.7z M557.3,437.8c0,2.4,0.7,3.7,1.8,3.7c1.3,0,1.9-1.5,1.9-3.8c0-2.2-0.6-3.7-1.8-3.7
		C558.1,434,557.3,435.3,557.3,437.8z"/>
	<path class="st8" d="M569.4,437.7c0,3.1-1.1,4.8-3.2,4.8c-1.8,0-3-1.7-3-4.7c0-3.1,1.3-4.7,3.2-4.7
		C568.3,433.1,569.4,434.8,569.4,437.7z M564.5,437.8c0,2.4,0.7,3.7,1.8,3.7c1.3,0,1.9-1.5,1.9-3.8c0-2.2-0.6-3.7-1.8-3.7
		C565.3,434,564.5,435.3,564.5,437.8z"/>
	<path class="st8" d="M538.8,460c0-1.1,0.7-2,1.8-2.4l0,0c-1-0.5-1.4-1.3-1.4-2c0-1.4,1.2-2.4,2.8-2.4c1.8,0,2.6,1.1,2.6,2.2
		c0,0.8-0.4,1.6-1.5,2.1v0c1.1,0.4,1.8,1.2,1.8,2.4c0,1.6-1.4,2.6-3.1,2.6C540,462.5,538.8,461.3,538.8,460z M543.7,460
		c0-1.1-0.8-1.6-2-2c-1.1,0.3-1.6,1-1.6,1.9c0,0.9,0.7,1.7,1.8,1.7C543,461.6,543.7,460.9,543.7,460z M540.3,455.4
		c0,0.9,0.7,1.4,1.7,1.7c0.8-0.3,1.4-0.8,1.4-1.7c0-0.7-0.4-1.5-1.5-1.5C540.9,453.9,540.3,454.6,540.3,455.4z"/>
	<path class="st8" d="M545.7,464c0.3-0.8,0.7-2.3,0.8-3.3l1.4-0.1c-0.3,1.2-0.9,2.7-1.3,3.4L545.7,464z"/>
	<path class="st8" d="M555.1,457.7c0,3.1-1.1,4.8-3.2,4.8c-1.8,0-3-1.7-3-4.7c0-3.1,1.3-4.7,3.2-4.7
		C554,453.1,555.1,454.8,555.1,457.7z M550.1,457.8c0,2.4,0.7,3.7,1.8,3.7c1.3,0,1.9-1.5,1.9-3.8c0-2.2-0.6-3.7-1.8-3.7
		C550.9,454,550.1,455.3,550.1,457.8z"/>
	<path class="st8" d="M562.3,457.7c0,3.1-1.1,4.8-3.2,4.8c-1.8,0-3-1.7-3-4.7c0-3.1,1.3-4.7,3.2-4.7
		C561.2,453.1,562.3,454.8,562.3,457.7z M557.3,457.8c0,2.4,0.7,3.7,1.8,3.7c1.3,0,1.9-1.5,1.9-3.8c0-2.2-0.6-3.7-1.8-3.7
		C558.1,454,557.3,455.3,557.3,457.8z"/>
	<path class="st8" d="M569.4,457.7c0,3.1-1.1,4.8-3.2,4.8c-1.8,0-3-1.7-3-4.7c0-3.1,1.3-4.7,3.2-4.7
		C568.3,453.1,569.4,454.8,569.4,457.7z M564.5,457.8c0,2.4,0.7,3.7,1.8,3.7c1.3,0,1.9-1.5,1.9-3.8c0-2.2-0.6-3.7-1.8-3.7
		C565.3,454,564.5,455.3,564.5,457.8z"/>
	<path class="st8" d="M527.3,474.4L527.3,474.4l-1.6,0.9l-0.2-0.9l2-1.1h1.1v9.1h-1.2V474.4z"/>
	<path class="st8" d="M537.8,477.7c0,3.1-1.1,4.8-3.2,4.8c-1.8,0-3-1.7-3-4.7c0-3.1,1.3-4.7,3.2-4.7
		C536.7,473.1,537.8,474.8,537.8,477.7z M532.9,477.8c0,2.4,0.7,3.7,1.8,3.7c1.3,0,1.9-1.5,1.9-3.8c0-2.2-0.6-3.7-1.8-3.7
		C533.7,474,532.9,475.3,532.9,477.8z"/>
	<path class="st8" d="M545,477.7c0,3.1-1.1,4.8-3.2,4.8c-1.8,0-3-1.7-3-4.7c0-3.1,1.3-4.7,3.2-4.7C543.9,473.1,545,474.8,545,477.7z
		 M540.1,477.8c0,2.4,0.7,3.7,1.8,3.7c1.3,0,1.9-1.5,1.9-3.8c0-2.2-0.6-3.7-1.8-3.7C540.8,474,540.1,475.3,540.1,477.8z"/>
	<path class="st8" d="M545.7,484c0.3-0.8,0.7-2.3,0.8-3.3l1.4-0.1c-0.3,1.2-0.9,2.7-1.3,3.4L545.7,484z"/>
	<path class="st8" d="M555.1,477.7c0,3.1-1.1,4.8-3.2,4.8c-1.8,0-3-1.7-3-4.7c0-3.1,1.3-4.7,3.2-4.7
		C554,473.1,555.1,474.8,555.1,477.7z M550.1,477.8c0,2.4,0.7,3.7,1.8,3.7c1.3,0,1.9-1.5,1.9-3.8c0-2.2-0.6-3.7-1.8-3.7
		C550.9,474,550.1,475.3,550.1,477.8z"/>
	<path class="st8" d="M562.3,477.7c0,3.1-1.1,4.8-3.2,4.8c-1.8,0-3-1.7-3-4.7c0-3.1,1.3-4.7,3.2-4.7
		C561.2,473.1,562.3,474.8,562.3,477.7z M557.3,477.8c0,2.4,0.7,3.7,1.8,3.7c1.3,0,1.9-1.5,1.9-3.8c0-2.2-0.6-3.7-1.8-3.7
		C558.1,474,557.3,475.3,557.3,477.8z"/>
	<path class="st8" d="M569.4,477.7c0,3.1-1.1,4.8-3.2,4.8c-1.8,0-3-1.7-3-4.7c0-3.1,1.3-4.7,3.2-4.7
		C568.3,473.1,569.4,474.8,569.4,477.7z M564.5,477.8c0,2.4,0.7,3.7,1.8,3.7c1.3,0,1.9-1.5,1.9-3.8c0-2.2-0.6-3.7-1.8-3.7
		C565.3,474,564.5,475.3,564.5,477.8z"/>
</g>
<polyline class="st7" points="570.6,67.1 277.1,67.1 95.6,124.1 72.1,124.1 "/>
<polyline class="st7" points="570.6,87.1 277.1,87.1 95.6,175.1 72.1,175.1 "/>
<polyline class="st7" points="570.6,107.1 277.1,107.1 95.6,200.1 72.1,200.1 "/>
<polyline class="st7" points="570.6,127.1 277.1,127.1 95.6,224.1 72.1,224.1 "/>
<polyline class="st7" points="570.6,147.1 277.1,147.1 95.6,248.1 72.1,248.1 "/>
<polyline class="st7" points="570.6,167.1 277.1,167.1 95.6,270.1 72.1,270.1 "/>
<polyline class="st7" points="570.6,187.1 277.1,187.1 95.6,292.1 72.1,292.1 "/>
<polyline class="st7" points="570.6,207.1 277.1,207.1 95.6,314.1 72.1,314.1 "/>
<polyline class="st7" points="570.6,227.1 277.1,227.1 95.6,332.1 72.1,332.1 "/>
<polyline class="st7" points="570.6,247.1 277.1,247.1 95.6,350.1 72.1,350.1 "/>
<polyline class="st7" points="570.6,267.1 277.1,267.1 95.6,369.1 72.1,369.1 "/>
<polyline class="st7" points="570.6,287.1 277.1,287.1 95.6,383.1 72.1,383.1 "/>
<polyline class="st7" points="570.6,307.1 277.1,307.1 95.6,395.1 72.1,395.1 "/>
<polyline class="st7" points="570.6,327.1 277.1,327.1 95.6,405.1 72.1,405.1 "/>
<polyline class="st7" points="570.6,347.1 277.1,347.1 95.6,415.1 72.1,415.1 "/>
<polyline class="st7" points="570.6,367.1 277.1,367.1 95.6,424.1 72.1,424.1 "/>
<polyline class="st7" points="570.6,387.1 277.1,387.1 95.6,430.1 72.1,430.1 "/>
<polyline class="st7" points="570.6,407.1 277.1,407.1 95.6,433.1 72.1,433.1 "/>
<polyline class="st7" points="570.6,427.1 277.1,427.1 95.6,436.1 72.1,436.1 "/>
<polyline class="st7" points="570.6,447.1 277.1,447.1 95.6,439.1 72.1,439.1 "/>
<polyline class="st7" points="71.6,441.1 95.2,441.1 277.1,467.1 570.6,467.1 "/>
<g>
	<text transform="matrix(1 0 0 1 6.8203 39.6395)"><tspan x="0" y="0" class="st8 st12 st13">123,456,789 </tspan><tspan x="104.9" y="0" class="st14 st12 st10">samples</tspan></text>
</g>
<g>
	<path class="st1" d="M289.7,63.5c2.8,0,5-2.2,5-5c0-0.7-0.2-1.4-0.5-2.1c-0.8-1.7-3-4.3-4.5-6.1l0,0c-1.5,1.8-3.7,4.4-4.5,6.1
		c-0.3,0.6-0.5,1.3-0.5,2.1C284.7,61.2,286.9,63.5,289.7,63.5z"/>
	<path class="st15" d="M286.7,58.9c0.2,1.4,1.3,2.4,2.7,2.6"/>
</g>
<g>
	<path class="st1" d="M289.7,83.5c2.8,0,5-2.2,5-5c0-0.7-0.2-1.4-0.5-2.1c-0.8-1.7-3-4.3-4.5-6.1l0,0c-1.5,1.8-3.7,4.4-4.5,6.1
		c-0.3,0.6-0.5,1.3-0.5,2.1C284.7,81.2,286.9,83.5,289.7,83.5z"/>
	<path class="st15" d="M286.7,78.9c0.2,1.4,1.3,2.4,2.7,2.6"/>
</g>
<g>
	<path class="st1" d="M289.7,103.5c2.8,0,5-2.2,5-5c0-0.7-0.2-1.4-0.5-2.1c-0.8-1.7-3-4.3-4.5-6.1l0,0c-1.5,1.8-3.7,4.4-4.5,6.1
		c-0.3,0.6-0.5,1.3-0.5,2.1C284.7,101.2,286.9,103.5,289.7,103.5z"/>
	<path class="st15" d="M286.7,98.9c0.2,1.4,1.3,2.4,2.7,2.6"/>
</g>
<g>
	<path class="st1" d="M289.7,123.5c2.8,0,5-2.2,5-5c0-0.7-0.2-1.4-0.5-2.1c-0.8-1.7-3-4.3-4.5-6.1l0,0c-1.5,1.8-3.7,4.4-4.5,6.1
		c-0.3,0.6-0.5,1.3-0.5,2.1C284.7,121.2,286.9,123.5,289.7,123.5z"/>
	<path class="st15" d="M286.7,118.9c0.2,1.4,1.3,2.4,2.7,2.6"/>
</g>
<g>
	<path class="st1" d="M289.7,143.5c2.8,0,5-2.2,5-5c0-0.7-0.2-1.4-0.5-2.1c-0.8-1.7-3-4.3-4.5-6.1l0,0c-1.5,1.8-3.7,4.4-4.5,6.1
		c-0.3,0.6-0.5,1.3-0.5,2.1C284.7,141.2,286.9,143.5,289.7,143.5z"/>
	<path class="st15" d="M286.7,138.9c0.2,1.4,1.3,2.4,2.7,2.6"/>
</g>
<g>
	<path class="st1" d="M289.7,163.5c2.8,0,5-2.2,5-5c0-0.7-0.2-1.4-0.5-2.1c-0.8-1.7-3-4.3-4.5-6.1l0,0c-1.5,1.8-3.7,4.4-4.5,6.1
		c-0.3,0.6-0.5,1.3-0.5,2.1C284.7,161.2,286.9,163.5,289.7,163.5z"/>
	<path class="st15" d="M286.7,158.9c0.2,1.4,1.3,2.4,2.7,2.6"/>
</g>
<g>
	<path class="st1" d="M289.7,183.5c2.8,0,5-2.2,5-5c0-0.7-0.2-1.4-0.5-2.1c-0.8-1.7-3-4.3-4.5-6.1l0,0c-1.5,1.8-3.7,4.4-4.5,6.1
		c-0.3,0.6-0.5,1.3-0.5,2.1C284.7,181.2,286.9,183.5,289.7,183.5z"/>
	<path class="st15" d="M286.7,178.9c0.2,1.4,1.3,2.4,2.7,2.6"/>
</g>
<path class="st2" d="M284.6,189.6v8h-2v-8H284.6z M282.6,200.6c0,1,4,1,4,3c0,1,0,1,0,1s1,0,3,0s6-3,6-5c0-1,0-1,0-1h-13
	C282.6,198.6,282.6,199.6,282.6,200.6z M285.6,197.6h10v-1h-10V197.6z"/>
<path class="st2" d="M284.6,209.6v8h-2v-8H284.6z M282.6,220.6c0,1,4,1,4,3c0,1,0,1,0,1s1,0,3,0s6-3,6-5c0-1,0-1,0-1h-13
	C282.6,218.6,282.6,219.6,282.6,220.6z M285.6,217.6h10v-1h-10V217.6z"/>
<g>
	<polyline class="st16" points="284.8,237.4 290.4,243 293.3,242.3 294,239.5 288.3,233.8 	"/>
	<polygon class="st3" points="287,239.6 290.4,243 293.3,242.3 293.9,239.6 	"/>
	<line class="st16" x1="293.3" y1="242.3" x2="296.4" y2="245.5"/>
	<line class="st16" x1="283.4" y1="238.8" x2="289.7" y2="232.4"/>
	<line class="st16" x1="285.5" y1="236.7" x2="282.6" y2="233.8"/>
	<line class="st16" x1="287.6" y1="234.5" x2="284.8" y2="231.7"/>
	<line class="st16" x1="280.5" y1="236" x2="286.9" y2="229.6"/>
	<line class="st16" x1="288.3" y1="236.7" x2="289.7" y2="235.3"/>
	<line class="st16" x1="289.7" y1="238.1" x2="291.1" y2="236.7"/>
	<line class="st16" x1="291.1" y1="239.5" x2="292.5" y2="238.1"/>
</g>
<g>
	<polyline class="st16" points="284.8,257.4 290.4,263 293.3,262.3 294,259.5 288.3,253.8 	"/>
	<polygon class="st3" points="287,259.6 290.4,263 293.3,262.3 293.9,259.6 	"/>
	<line class="st16" x1="293.3" y1="262.3" x2="296.4" y2="265.5"/>
	<line class="st16" x1="283.4" y1="258.8" x2="289.7" y2="252.4"/>
	<line class="st16" x1="285.5" y1="256.7" x2="282.6" y2="253.8"/>
	<line class="st16" x1="287.6" y1="254.5" x2="284.8" y2="251.7"/>
	<line class="st16" x1="280.5" y1="256" x2="286.9" y2="249.6"/>
	<line class="st16" x1="288.3" y1="256.7" x2="289.7" y2="255.3"/>
	<line class="st16" x1="289.7" y1="258.1" x2="291.1" y2="256.7"/>
	<line class="st16" x1="291.1" y1="259.5" x2="292.5" y2="258.1"/>
</g>
<g>
	<polyline class="st16" points="284.8,277.4 290.4,283 293.3,282.3 294,279.5 288.3,273.8 	"/>
	<polygon class="st3" points="287,279.6 290.4,283 293.3,282.3 293.9,279.6 	"/>
	<line class="st16" x1="293.3" y1="282.3" x2="296.4" y2="285.5"/>
	<line class="st16" x1="283.4" y1="278.8" x2="289.7" y2="272.4"/>
	<line class="st16" x1="285.5" y1="276.7" x2="282.6" y2="273.8"/>
	<line class="st16" x1="287.6" y1="274.5" x2="284.8" y2="271.7"/>
	<line class="st16" x1="280.5" y1="276" x2="286.9" y2="269.6"/>
	<line class="st16" x1="288.3" y1="276.7" x2="289.7" y2="275.3"/>
	<line class="st16" x1="289.7" y1="278.1" x2="291.1" y2="276.7"/>
	<line class="st16" x1="291.1" y1="279.5" x2="292.5" y2="278.1"/>
</g>
<g>
	<polyline class="st16" points="284.8,297.4 290.4,303 293.3,302.3 294,299.5 288.3,293.8 	"/>
	<polygon class="st3" points="287,299.6 290.4,303 293.3,302.3 293.9,299.6 	"/>
	<line class="st16" x1="293.3" y1="302.3" x2="296.4" y2="305.5"/>
	<line class="st16" x1="283.4" y1="298.8" x2="289.7" y2="292.4"/>
	<line class="st16" x1="285.5" y1="296.7" x2="282.6" y2="293.8"/>
	<line class="st16" x1="287.6" y1="294.5" x2="284.8" y2="291.7"/>
	<line class="st16" x1="280.5" y1="296" x2="286.9" y2="289.6"/>
	<line class="st16" x1="288.3" y1="296.7" x2="289.7" y2="295.3"/>
	<line class="st16" x1="289.7" y1="298.1" x2="291.1" y2="296.7"/>
	<line class="st16" x1="291.1" y1="299.5" x2="292.5" y2="298.1"/>
</g>
<g>
	<path class="st4" d="M292.9,316.8c1.2-0.6,1.9-1.5,1.9-2.4c0-1.7-2.3-3.1-5-3.1c-2.8,0-5,1.4-5,3.1c0,0.5,0.2,0.9,0.5,1.3
		c-1.8,0.7-3,2-3,3.4c0,2.2,2.6,3.9,5.9,3.9s5.9-1.8,5.9-3.9C294,318.2,293.6,317.4,292.9,316.8z"/>
	<path class="st15" d="M286.8,321.2c-1.4-0.3-2.4-1-2.6-1.8"/>
</g>
<g>
	<path class="st4" d="M292.9,336.8c1.2-0.6,1.9-1.5,1.9-2.4c0-1.7-2.3-3.1-5-3.1c-2.8,0-5,1.4-5,3.1c0,0.5,0.2,0.9,0.5,1.3
		c-1.8,0.7-3,2-3,3.4c0,2.2,2.6,3.9,5.9,3.9s5.9-1.8,5.9-3.9C294,338.2,293.6,337.4,292.9,336.8z"/>
	<path class="st15" d="M286.8,341.2c-1.4-0.3-2.4-1-2.6-1.8"/>
</g>
<g>
	<path class="st5" d="M288.6,350.5l-5.8,2.5c-0.3,0.1-0.5,0.5-0.5,0.8v7c0,0.4,0.2,0.7,0.5,0.8l5.8,2.5c0.2,0.1,0.5,0.1,0.7,0
		l5.8-2.5c0.3-0.1,0.5-0.5,0.5-0.8v-7c0-0.4-0.2-0.7-0.5-0.8l-5.8-2.5C289.1,350.4,288.8,350.4,288.6,350.5z"/>
	<line class="st15" x1="287.6" y1="356" x2="284" y2="354.4"/>
</g>
<g>
	<path class="st5" d="M288.6,370.5l-5.8,2.5c-0.3,0.1-0.5,0.5-0.5,0.8v7c0,0.4,0.2,0.7,0.5,0.8l5.8,2.5c0.2,0.1,0.5,0.1,0.7,0
		l5.8-2.5c0.3-0.1,0.5-0.5,0.5-0.8v-7c0-0.4-0.2-0.7-0.5-0.8l-5.8-2.5C289.1,370.4,288.8,370.4,288.6,370.5z"/>
	<line class="st15" x1="287.6" y1="376" x2="284" y2="374.4"/>
</g>
<g>
	<path class="st5" d="M288.6,390.5l-5.8,2.5c-0.3,0.1-0.5,0.5-0.5,0.8v7c0,0.4,0.2,0.7,0.5,0.8l5.8,2.5c0.2,0.1,0.5,0.1,0.7,0
		l5.8-2.5c0.3-0.1,0.5-0.5,0.5-0.8v-7c0-0.4-0.2-0.7-0.5-0.8l-5.8-2.5C289.1,390.4,288.8,390.4,288.6,390.5z"/>
	<line class="st15" x1="287.6" y1="396" x2="284" y2="394.4"/>
</g>
<g>
	<path class="st5" d="M288.6,410.5l-5.8,2.5c-0.3,0.1-0.5,0.5-0.5,0.8v7c0,0.4,0.2,0.7,0.5,0.8l5.8,2.5c0.2,0.1,0.5,0.1,0.7,0
		l5.8-2.5c0.3-0.1,0.5-0.5,0.5-0.8v-7c0-0.4-0.2-0.7-0.5-0.8l-5.8-2.5C289.1,410.4,288.8,410.4,288.6,410.5z"/>
	<line class="st15" x1="287.6" y1="416" x2="284" y2="414.4"/>
</g>
<g>
	<g>
		<path class="st17" d="M290.2,438.4c1.6,1.4,3.1,3.1,4.3,6.5"/>
		<path class="st17" d="M283.6,429.9c1.2,3.4,2.8,5.1,4.3,6.5"/>
	</g>
	<line class="st17" x1="285.6" y1="431.6" x2="292.5" y2="431.6"/>
	<line class="st17" x1="287.6" y1="433.7" x2="290.6" y2="433.7"/>
	<line class="st17" x1="292.5" y1="443.2" x2="285.6" y2="443.2"/>
	<line class="st17" x1="290.6" y1="441.1" x2="287.6" y2="441.1"/>
	<path class="st17" d="M294.6,429.9c-3.1,8.4-7.9,6.6-11,15"/>
</g>
<g>
	<g>
		<path class="st17" d="M290.2,458.4c1.6,1.4,3.1,3.1,4.3,6.5"/>
		<path class="st17" d="M283.6,449.9c1.2,3.4,2.8,5.1,4.3,6.5"/>
	</g>
	<line class="st17" x1="285.6" y1="451.6" x2="292.5" y2="451.6"/>
	<line class="st17" x1="287.6" y1="453.7" x2="290.6" y2="453.7"/>
	<line class="st17" x1="292.5" y1="463.2" x2="285.6" y2="463.2"/>
	<line class="st17" x1="290.6" y1="461.1" x2="287.6" y2="461.1"/>
	<path class="st17" d="M294.6,449.9c-3.1,8.4-7.9,6.6-11,15"/>
</g>
</svg>
