<?xml version="1.0" encoding="utf-8"?>
<!-- Generator: Adobe Illustrator 21.1.0, SVG Export Plug-In . SVG Version: 6.00 Build 0)  -->
<svg version="1.1" id="Layer_1" xmlns="http://www.w3.org/2000/svg" xmlns:xlink="http://www.w3.org/1999/xlink" x="0px" y="0px"
	 viewBox="0 0 560 352.7" style="enable-background:new 0 0 560 352.7;" xml:space="preserve">
<style type="text/css">
	.st0{fill:none;stroke:#69B4E4;stroke-width:2;stroke-miterlimit:10;}
	.st1{fill:none;stroke:#F6A1B1;stroke-width:2;stroke-miterlimit:10;}
	.st2{fill:#187B84;}
	.st3{font-family:'HelveticaLTStd-BoldCond';}
	.st4{font-size:20px;}
	.st5{fill:#8EA9AB;}
	.st6{font-family:'HiraKakuPro-W6-83pv-RKSJ-H';}
	.st7{font-size:12px;}
	.st8{font-family:'HiraginoSansPr6N-W6';}
	.st9{font-size:14px;}
	.st10{fill:none;stroke:#187B84;stroke-miterlimit:10;}
	.st11{fill:none;stroke:#187B84;stroke-width:6;stroke-miterlimit:10;}
	.st12{fill:none;stroke:#DEE5E1;stroke-width:6;stroke-miterlimit:10;}
	.st13{fill:none;stroke:#FFFFFF;stroke-miterlimit:10;}
	.st14{fill:none;}
	.st15{font-size:10px;}
</style>
<g>
	<g>
		<circle class="st0" cx="199" cy="14.4" r="7.5"/>
		<path class="st0" d="M185.5,54.1V27.9c0-1.7,1.4-3,3.2-3h20.6c1.8,0,3.2,1.3,3.2,3v26.2"/>
		<path class="st0" d="M206.5,48.1v25c0,1.5-0.8,2.8-1.8,2.8h-11.5c-1,0-1.8-1.2-1.8-2.8v-25"/>
		<line class="st0" x1="199" y1="52.6" x2="199" y2="75.5"/>
	</g>
	<g>
		<circle class="st1" cx="408" cy="14.4" r="7.5"/>
		<path class="st1" d="M391.6,54.1l7.5-27.6c0.2-0.9,1.3-1.6,2.4-1.6h12.9c1.1,0,2.2,0.7,2.4,1.6l7.5,27.6"/>
		<path class="st1" d="M415.5,48.1l-5,26.8c-0.1,0.5-0.4,0.9-0.7,0.9h-3.5c-0.3,0-0.6-0.4-0.7-0.9l-5-26.8"/>
	</g>
	<g>
		<text transform="matrix(1 0 0 1 229.2776 51.3911)"><tspan x="0" y="0" class="st2 st3 st4">12,345,678</tspan><tspan x="93.4" y="0" class="st5 st6 st7">人</tspan></text>
	</g>
	<g>
		<text transform="matrix(1 0 0 1 441.2776 51.3911)"><tspan x="0" y="0" class="st2 st3 st4">12,345,678</tspan><tspan x="93.4" y="0" class="st5 st6 st7">人</tspan></text>
	</g>
	<g>
		<text transform="matrix(1 0 0 1 2.2776 49.3911)" class="st2 st8 st9">男女の各総数</text>
	</g>
	<g>
		<text transform="matrix(1 0 0 1 2.2776 154.3911)" class="st2 st8 st9">年齢</text>
	</g>
	<g>
		<text transform="matrix(1 0 0 1 2.2776 290.3911)" class="st2 st8 st9">既往症・併存症</text>
	</g>
	<g>
		<g>
			<text transform="matrix(1 0 0 1 191.6867 198.3911)" class="st2 st3 st9">0</text>
		</g>
		<g>
			<text transform="matrix(1 0 0 1 223.0959 198.3911)" class="st2 st3 st9">10</text>
		</g>
		<g>
			<text transform="matrix(1 0 0 1 258.0959 198.3911)" class="st2 st3 st9">20</text>
		</g>
		<g>
			<text transform="matrix(1 0 0 1 293.0959 198.3911)" class="st2 st3 st9">30</text>
		</g>
		<g>
			<text transform="matrix(1 0 0 1 328.0959 198.3911)" class="st2 st3 st9">40</text>
		</g>
		<g>
			<text transform="matrix(1 0 0 1 363.0959 198.3911)" class="st2 st3 st9">50</text>
		</g>
		<g>
			<text transform="matrix(1 0 0 1 398.0959 198.3911)" class="st2 st3 st9">60</text>
		</g>
		<g>
			<text transform="matrix(1 0 0 1 433.0959 198.3911)" class="st2 st3 st9">70</text>
		</g>
		<g>
			<text transform="matrix(1 0 0 1 468.0959 198.3911)" class="st2 st3 st9">80</text>
		</g>
		<line class="st10" x1="176" y1="179.9" x2="561" y2="179.9"/>
		<line class="st11" x1="195" y1="180.4" x2="195" y2="169.7"/>
		<line class="st11" x1="230" y1="180.4" x2="230" y2="162.1"/>
		<line class="st11" x1="265" y1="180.4" x2="265" y2="148.4"/>
		<line class="st11" x1="300" y1="180.4" x2="300" y2="130.8"/>
		<line class="st11" x1="335" y1="180.4" x2="335" y2="113.3"/>
		<line class="st11" x1="370" y1="180.4" x2="370" y2="103.4"/>
		<line class="st11" x1="405" y1="180.4" x2="405" y2="109.5"/>
		<line class="st11" x1="440" y1="180.4" x2="440" y2="121.7"/>
		<line class="st11" x1="475" y1="180.4" x2="475" y2="141.4"/>
		<g>
			<text transform="matrix(1 0 0 1 503.0959 198.3911)" class="st2 st3 st9">90</text>
		</g>
		<line class="st11" x1="510" y1="180.4" x2="510" y2="168.4"/>
		<g>
			<text transform="matrix(1 0 0 1 530.3328 198.3911)" class="st2 st3 st9">100~</text>
		</g>
		<line class="st11" x1="545" y1="180.4" x2="545" y2="161.4"/>
	</g>
	<g>
		<path class="st12" d="M254.1,331c-12-10.1-19.6-25.2-19.6-42.1c0-30.4,24.6-55,55-55"/>
		<path class="st11" d="M289.5,233.9c30.4,0,55,24.6,55,55s-24.6,55-55,55c-13.5,0-25.8-4.8-35.4-12.9"/>
		<g>
			<line class="st13" x1="289" y1="226.4" x2="289" y2="288.4"/>
			<line class="st14" x1="289" y1="288.4" x2="289" y2="350.4"/>
		</g>
		<g>
			<line class="st13" x1="339.6" y1="252.5" x2="289" y2="288.4"/>
			<line class="st14" x1="289" y1="288.4" x2="238.4" y2="324.2"/>
		</g>
		<g>
			<line class="st13" x1="350.8" y1="282.7" x2="289" y2="288.4"/>
			<line class="st14" x1="289" y1="288.4" x2="227.3" y2="294.1"/>
		</g>
		<g>
			<line class="st13" x1="346.2" y1="312.5" x2="289" y2="288.4"/>
			<line class="st14" x1="289" y1="288.4" x2="231.9" y2="264.3"/>
		</g>
		<g>
			<line class="st13" x1="334.2" y1="330.8" x2="289" y2="288.4"/>
			<line class="st14" x1="289" y1="288.4" x2="243.8" y2="246"/>
		</g>
		<g>
			<line class="st13" x1="318.9" y1="342.7" x2="289" y2="288.4"/>
			<line class="st14" x1="289" y1="288.4" x2="259.2" y2="234.1"/>
		</g>
		<g>
			<line class="st13" x1="302.6" y1="348.9" x2="289" y2="288.4"/>
			<line class="st14" x1="289" y1="288.4" x2="275.5" y2="227.9"/>
		</g>
		<g>
			<line class="st13" x1="291" y1="350.4" x2="289" y2="288.4"/>
			<line class="st14" x1="289" y1="288.4" x2="287" y2="226.4"/>
		</g>
		<g>
			<line class="st13" x1="278.4" y1="349.5" x2="289" y2="288.4"/>
			<line class="st14" x1="289" y1="288.4" x2="299.7" y2="227.3"/>
		</g>
		<g>
			<line class="st13" x1="268.9" y1="347" x2="289" y2="288.4"/>
			<line class="st14" x1="289" y1="288.4" x2="309.2" y2="229.8"/>
		</g>
		<g>
			<line class="st13" x1="262.6" y1="344.5" x2="289" y2="288.4"/>
			<line class="st14" x1="289" y1="288.4" x2="315.5" y2="232.3"/>
		</g>
		<g>
			<line class="st13" x1="257" y1="341.4" x2="289" y2="288.4"/>
			<line class="st14" x1="289" y1="288.4" x2="321.1" y2="235.3"/>
		</g>
		<g>
			<line class="st13" x1="252.1" y1="338.2" x2="289" y2="288.4"/>
			<line class="st14" x1="289" y1="288.4" x2="325.9" y2="238.6"/>
		</g>
		<g>
			<line class="st13" x1="249.4" y1="336.1" x2="289" y2="288.4"/>
			<line class="st14" x1="289" y1="288.4" x2="328.7" y2="240.7"/>
		</g>
	</g>
	<g>
		<text transform="matrix(1 0 0 1 375.027 254.3911)"><tspan x="0" y="0" class="st2 st8 st7">悪性新生物</tspan><tspan x="0" y="16" class="st2 st8 st7">心疾患</tspan><tspan x="0" y="32" class="st2 st8 st7">肺炎</tspan><tspan x="0" y="48" class="st2 st8 st7">脳血管疾患</tspan><tspan x="0" y="64" class="st2 st8 st7">腎不全</tspan><tspan x="0" y="80" class="st2 st8 st7">慢性閉塞性肺疾患</tspan></text>
	</g>
	<g>
		<text transform="matrix(1 0 0 1 480.6638 254.3911)"><tspan x="0" y="0" class="st2 st3 st9">28.7</tspan><tspan x="24.4" y="0" class="st5 st3 st15">%</tspan><tspan x="0" y="16" class="st2 st3 st9">15.8</tspan><tspan x="24.4" y="16" class="st5 st3 st15">%</tspan><tspan x="7.2" y="32" class="st2 st3 st9">9.9</tspan><tspan x="24.4" y="32" class="st5 st3 st15">%</tspan><tspan x="7.2" y="48" class="st2 st3 st9">9.7</tspan><tspan x="24.4" y="48" class="st5 st3 st15">%</tspan><tspan x="7.2" y="64" class="st2 st3 st9">2.0</tspan><tspan x="24.4" y="64" class="st5 st3 st15">%</tspan><tspan x="7.2" y="80" class="st2 st3 st9">1.3</tspan><tspan x="24.4" y="80" class="st5 st3 st15">%</tspan></text>
	</g>
</g>
</svg>
