<?xml version="1.0" encoding="utf-8"?>
<!-- Generator: Adobe Illustrator 21.1.0, SVG Export Plug-In . SVG Version: 6.00 Build 0)  -->
<svg version="1.1" id="Layer_1" xmlns="http://www.w3.org/2000/svg" xmlns:xlink="http://www.w3.org/1999/xlink" x="0px" y="0px"
	 viewBox="0 0 174 53" style="enable-background:new 0 0 174 53;" xml:space="preserve">
<style type="text/css">
	.st0{opacity:0.7;fill:#B0B836;}
	.st1{opacity:0.7;fill:#4AB09F;}
	.st2{fill:#C5E0A0;}
	.st3{opacity:0.7;fill:#F69688;}
	.st4{fill:#FEE187;}
	.st5{fill:#FDDFD4;}
	.st6{fill:#FFF7CF;}
	.st7{fill:url(#SVGID_1_);}
	.st8{fill:url(#SVGID_2_);}
	.st9{fill:url(#SVGID_3_);}
	.st10{fill:url(#SVGID_4_);}
	.st11{fill:url(#SVGID_5_);}
	.st12{fill:url(#SVGID_6_);}
	.st13{fill:#187B84;}
</style>
<g>
	<polygon class="st0" points="51.5,9.3 34.5,-0.5 26,4.4 34.5,9.3 34.5,19 43,23.9 43,33.7 51.5,28.8 	"/>
	<polygon class="st1" points="34.5,38.6 26,33.7 17.5,38.6 9,33.7 9,43.4 26,53.2 43,43.4 43,33.7 	"/>
	<polygon class="st2" points="43,23.9 34.5,19 34.5,28.8 26,33.7 34.5,38.6 43,33.7 	"/>
	<polygon class="st3" points="9,23.9 17.5,19 17.5,9.3 26,4.4 17.5,-0.5 0.4,9.3 0.4,28.8 9,33.7 	"/>
	<polygon class="st4" points="17.5,9.3 17.5,19 26,14.1 34.5,19 34.5,9.3 26,4.4 	"/>
	<polygon class="st5" points="17.5,38.6 26,33.7 17.5,28.8 17.5,19 9,23.9 9,33.7 	"/>
	<polygon class="st6" points="26,14.1 17.5,19 17.5,28.8 26,33.7 34.5,28.8 34.5,19 	"/>
</g>
<g>
	<linearGradient id="SVGID_1_" gradientUnits="userSpaceOnUse" x1="17.4047" y1="19.1272" x2="0.1716" y2="28.9168">
		<stop  offset="0" style="stop-color:#4BB09F;stop-opacity:0"/>
		<stop  offset="0.9873" style="stop-color:#4AB09F;stop-opacity:0.15"/>
	</linearGradient>
	<polygon class="st7" points="0.4,9.3 0.4,28.8 17.5,38.6 17.5,19 	"/>
	<linearGradient id="SVGID_2_" gradientUnits="userSpaceOnUse" x1="25.9629" y1="33.7495" x2="8.7299" y2="43.5391">
		<stop  offset="0" style="stop-color:#4BB09F;stop-opacity:0"/>
		<stop  offset="0.9873" style="stop-color:#4AB09F;stop-opacity:0.15"/>
	</linearGradient>
	<polygon class="st8" points="9,23.9 9,43.4 26,53.2 26,33.7 	"/>
	<linearGradient id="SVGID_3_" gradientUnits="userSpaceOnUse" x1="34.4722" y1="19.1272" x2="17.2392" y2="28.9168">
		<stop  offset="0" style="stop-color:#4BB09F;stop-opacity:0"/>
		<stop  offset="0.9873" style="stop-color:#4AB09F;stop-opacity:0.15"/>
	</linearGradient>
	<polygon class="st9" points="17.5,9.3 17.5,28.8 34.5,38.6 34.5,19 	"/>
	
		<linearGradient id="SVGID_4_" gradientUnits="userSpaceOnUse" x1="1334.7168" y1="75.4137" x2="1317.4838" y2="85.2033" gradientTransform="matrix(-0.5 0.866 -0.866 -0.5 750.0441 -1099.1821)">
		<stop  offset="0" style="stop-color:#FFFFFF;stop-opacity:0"/>
		<stop  offset="1" style="stop-color:#FFFFFF;stop-opacity:0.25"/>
	</linearGradient>
	<polygon class="st10" points="34.4,9.3 17.5,-0.5 0.5,9.3 17.4,19.1 	"/>
	
		<linearGradient id="SVGID_5_" gradientUnits="userSpaceOnUse" x1="1326.2075" y1="60.6751" x2="1308.9745" y2="70.4648" gradientTransform="matrix(-0.5 0.866 -0.866 -0.5 750.0441 -1099.1821)">
		<stop  offset="0" style="stop-color:#FFFFFF;stop-opacity:0"/>
		<stop  offset="1" style="stop-color:#FFFFFF;stop-opacity:0.25"/>
	</linearGradient>
	<polygon class="st11" points="51.4,9.3 34.5,-0.5 17.5,9.3 34.4,19.1 	"/>
	
		<linearGradient id="SVGID_6_" gradientUnits="userSpaceOnUse" x1="1343.0621" y1="60.6235" x2="1325.8291" y2="70.4131" gradientTransform="matrix(-0.5 0.866 -0.866 -0.5 750.0441 -1099.1821)">
		<stop  offset="0" style="stop-color:#FFFFFF;stop-opacity:0"/>
		<stop  offset="1" style="stop-color:#FFFFFF;stop-opacity:0.25"/>
	</linearGradient>
	<polygon class="st12" points="43,23.9 26.1,14.1 9.1,23.9 26.1,33.7 	"/>
</g>
<g>
	<path class="st13" d="M65.6,13.5l-1.2,3.6h-1.5l3.9-11.5h1.8l3.9,11.5h-1.6l-1.2-3.6H65.6z M69.4,12.3L68.3,9
		c-0.3-0.7-0.4-1.4-0.6-2.1h0c-0.2,0.7-0.4,1.4-0.6,2.1l-1.1,3.3H69.4z"/>
	<path class="st13" d="M83.8,12c-0.1-1.6-0.2-3.5-0.2-4.9h-0.1c-0.4,1.3-0.9,2.8-1.4,4.4l-2,5.6H79l-1.9-5.5c-0.5-1.6-1-3.1-1.3-4.5
		h0c0,1.4-0.1,3.3-0.2,5.1l-0.3,4.9h-1.4l0.8-11.5h1.9l2,5.5c0.5,1.4,0.9,2.7,1.2,3.9h0.1c0.3-1.2,0.7-2.4,1.2-3.9l2-5.5h1.9
		l0.7,11.5h-1.4L83.8,12z"/>
	<path class="st13" d="M93.8,11.7h-4.5v4.1h5v1.2h-6.4V5.6H94v1.2h-4.7v3.6h4.5V11.7z"/>
	<path class="st13" d="M96.2,5.8c0.9-0.1,2-0.2,3.1-0.2c2.1,0,3.6,0.5,4.6,1.4c1,0.9,1.6,2.3,1.6,4.1c0,1.9-0.6,3.4-1.6,4.5
		c-1.1,1.1-2.8,1.6-5.1,1.6c-1.1,0-1.9-0.1-2.7-0.1V5.8z M97.7,15.9c0.4,0.1,0.9,0.1,1.5,0.1c3.2,0,4.9-1.8,4.9-4.9
		c0-2.7-1.5-4.4-4.6-4.4c-0.8,0-1.3,0.1-1.7,0.2V15.9z"/>
	<path class="st13" d="M63.8,21.8c0.6-0.1,1.7-0.2,2.7-0.2c1.5,0,2.4,0.3,3.1,0.8c0.6,0.4,1,1.1,1,2c0,1.1-0.7,2.1-1.9,2.5v0
		c1.1,0.3,2.4,1.2,2.4,2.9c0,1-0.4,1.7-1,2.3c-0.8,0.7-2.1,1.1-4,1.1c-1,0-1.8-0.1-2.3-0.1V21.8z M65.3,26.4h1.3
		c1.6,0,2.5-0.8,2.5-1.9c0-1.3-1-1.9-2.5-1.9c-0.7,0-1.1,0.1-1.3,0.1V26.4z M65.3,31.9C65.6,32,66,32,66.5,32c1.5,0,2.9-0.6,2.9-2.2
		c0-1.6-1.3-2.2-3-2.2h-1.2V31.9z"/>
	<path class="st13" d="M74.5,21.6v11.5H73V21.6H74.5z"/>
	<path class="st13" d="M86.9,27.2c0,3.9-2.4,6-5.3,6c-3,0-5.2-2.3-5.2-5.8c0-3.6,2.3-6,5.3-6C84.8,21.4,86.9,23.8,86.9,27.2z
		 M78,27.4c0,2.4,1.3,4.6,3.7,4.6c2.3,0,3.7-2.2,3.7-4.8c0-2.3-1.2-4.7-3.7-4.7C79.2,22.6,78,24.9,78,27.4z"/>
	<path class="st13" d="M88.8,21.8c0.6-0.1,1.7-0.2,2.7-0.2c1.5,0,2.4,0.3,3.1,0.8c0.6,0.4,1,1.1,1,2c0,1.1-0.7,2.1-1.9,2.5v0
		c1.1,0.3,2.4,1.2,2.4,2.9c0,1-0.4,1.7-1,2.3c-0.8,0.7-2.1,1.1-4,1.1c-1,0-1.8-0.1-2.3-0.1V21.8z M90.3,26.4h1.3
		c1.6,0,2.5-0.8,2.5-1.9c0-1.3-1-1.9-2.5-1.9c-0.7,0-1.1,0.1-1.3,0.1V26.4z M90.3,31.9C90.5,32,91,32,91.5,32c1.5,0,2.9-0.6,2.9-2.2
		c0-1.6-1.3-2.2-3-2.2h-1.2V31.9z"/>
	<path class="st13" d="M99.8,29.5l-1.2,3.6h-1.5l3.9-11.5h1.8l3.9,11.5h-1.6l-1.2-3.6H99.8z M103.6,28.3l-1.1-3.3
		c-0.3-0.7-0.4-1.4-0.6-2.1h0c-0.2,0.7-0.4,1.4-0.6,2.1l-1.1,3.3H103.6z"/>
	<path class="st13" d="M108.4,33.1V21.6h1.6l3.7,5.8c0.8,1.3,1.5,2.5,2.1,3.7l0,0c-0.1-1.5-0.2-2.9-0.2-4.7v-4.8h1.4v11.5h-1.5
		l-3.6-5.8c-0.8-1.3-1.6-2.6-2.1-3.8l-0.1,0c0.1,1.4,0.1,2.8,0.1,4.7v4.9H108.4z"/>
	<path class="st13" d="M119.6,21.6h1.5v5.5h0.1c0.3-0.4,0.6-0.8,0.9-1.2l3.5-4.3h1.8l-4.1,4.9l4.5,6.6h-1.8l-3.8-5.6l-1.1,1.3v4.4
		h-1.5V21.6z"/>
	<path class="st13" d="M71.8,48.7c-0.5,0.3-1.6,0.5-3,0.5c-3.2,0-5.7-2-5.7-5.8c0-3.6,2.4-6,6-6c1.4,0,2.3,0.3,2.7,0.5l-0.4,1.2
		c-0.6-0.3-1.4-0.5-2.3-0.5c-2.7,0-4.5,1.7-4.5,4.7c0,2.8,1.6,4.6,4.4,4.6c0.9,0,1.8-0.2,2.4-0.5L71.8,48.7z"/>
	<path class="st13" d="M73.6,37.8c0.7-0.2,1.8-0.2,2.8-0.2c1.6,0,2.6,0.3,3.3,0.9c0.6,0.5,0.9,1.3,0.9,2.2c0,1.5-1,2.5-2.2,2.9v0.1
		c0.9,0.3,1.4,1.1,1.7,2.3c0.4,1.6,0.6,2.7,0.9,3.1h-1.5c-0.2-0.3-0.4-1.3-0.8-2.7c-0.3-1.6-1-2.2-2.3-2.2h-1.4v5h-1.5V37.8z
		 M75.1,43h1.5c1.6,0,2.6-0.9,2.6-2.2c0-1.5-1.1-2.1-2.6-2.1c-0.7,0-1.2,0.1-1.5,0.1V43z"/>
	<path class="st13" d="M92.6,43.2c0,3.9-2.4,6-5.3,6c-3,0-5.2-2.3-5.2-5.8c0-3.6,2.3-6,5.3-6C90.6,37.4,92.6,39.8,92.6,43.2z
		 M83.7,43.4c0,2.4,1.3,4.6,3.7,4.6c2.3,0,3.7-2.2,3.7-4.8c0-2.3-1.2-4.7-3.7-4.7C84.9,38.6,83.7,40.9,83.7,43.4z"/>
	<path class="st13" d="M94.3,47.3C95,47.7,95.9,48,97,48c1.5,0,2.4-0.8,2.4-2c0-1.1-0.6-1.7-2.2-2.3c-1.9-0.7-3-1.6-3-3.2
		c0-1.8,1.5-3.1,3.7-3.1c1.2,0,2,0.3,2.5,0.6l-0.4,1.2c-0.4-0.2-1.1-0.5-2.2-0.5c-1.6,0-2.2,0.9-2.2,1.7c0,1.1,0.7,1.6,2.3,2.2
		c1.9,0.7,2.9,1.7,2.9,3.4c0,1.8-1.3,3.3-4,3.3c-1.1,0-2.3-0.3-2.9-0.7L94.3,47.3z"/>
	<path class="st13" d="M102.7,47.3c0.7,0.4,1.6,0.7,2.7,0.7c1.5,0,2.4-0.8,2.4-2c0-1.1-0.6-1.7-2.2-2.3c-1.9-0.7-3-1.6-3-3.2
		c0-1.8,1.5-3.1,3.7-3.1c1.2,0,2,0.3,2.5,0.6l-0.4,1.2c-0.4-0.2-1.1-0.5-2.2-0.5c-1.6,0-2.2,0.9-2.2,1.7c0,1.1,0.7,1.6,2.3,2.2
		c1.9,0.7,2.9,1.7,2.9,3.4c0,1.8-1.3,3.3-4,3.3c-1.1,0-2.3-0.3-2.9-0.7L102.7,47.3z"/>
	<path class="st13" d="M114.7,43.9V45h-4.2v-1.1H114.7z"/>
	<path class="st13" d="M116.3,47.3c0.7,0.4,1.6,0.7,2.7,0.7c1.5,0,2.4-0.8,2.4-2c0-1.1-0.6-1.7-2.2-2.3c-1.9-0.7-3-1.6-3-3.2
		c0-1.8,1.5-3.1,3.7-3.1c1.2,0,2,0.3,2.5,0.6l-0.4,1.2c-0.4-0.2-1.1-0.5-2.2-0.5c-1.6,0-2.2,0.9-2.2,1.7c0,1.1,0.7,1.6,2.3,2.2
		c1.9,0.7,2.9,1.7,2.9,3.4c0,1.8-1.3,3.3-4,3.3c-1.1,0-2.3-0.3-2.9-0.7L116.3,47.3z"/>
	<path class="st13" d="M130.8,43.7h-4.5v4.1h5v1.2h-6.4V37.6h6.2v1.2h-4.7v3.6h4.5V43.7z"/>
	<path class="st13" d="M135.1,45.5l-1.2,3.6h-1.5l3.9-11.5h1.8l3.9,11.5h-1.6l-1.2-3.6H135.1z M138.8,44.3l-1.1-3.3
		c-0.3-0.7-0.4-1.4-0.6-2.1h0c-0.2,0.7-0.4,1.4-0.6,2.1l-1.1,3.3H138.8z"/>
	<path class="st13" d="M143.6,37.8c0.7-0.2,1.8-0.2,2.8-0.2c1.6,0,2.6,0.3,3.3,0.9c0.6,0.5,0.9,1.3,0.9,2.2c0,1.5-1,2.5-2.2,2.9v0.1
		c0.9,0.3,1.4,1.1,1.7,2.3c0.4,1.6,0.6,2.7,0.9,3.1h-1.5c-0.2-0.3-0.4-1.3-0.8-2.7c-0.3-1.6-1-2.2-2.3-2.2h-1.4v5h-1.5V37.8z
		 M145.1,43h1.5c1.6,0,2.6-0.9,2.6-2.2c0-1.5-1.1-2.1-2.6-2.1c-0.7,0-1.2,0.1-1.5,0.1V43z"/>
	<path class="st13" d="M160.8,48.7c-0.5,0.3-1.6,0.5-3,0.5c-3.2,0-5.7-2-5.7-5.8c0-3.6,2.4-6,6-6c1.4,0,2.3,0.3,2.7,0.5l-0.4,1.2
		c-0.6-0.3-1.4-0.5-2.3-0.5c-2.7,0-4.5,1.7-4.5,4.7c0,2.8,1.6,4.6,4.4,4.6c0.9,0,1.8-0.2,2.4-0.5L160.8,48.7z"/>
	<path class="st13" d="M164.1,37.6v4.8h5.5v-4.8h1.5v11.5h-1.5v-5.4h-5.5v5.4h-1.5V37.6H164.1z"/>
</g>
</svg>
